<svg xmlns="http://www.w3.org/2000/svg" width="1080" height="720" viewBox="0 0 1080 720"><rect width="100%" height="100%" fill="#DAA520"/><path fill="#FFFFFF" d="M228.465 360.485h13.57l-5.19-14.19q-.39-.94-.8-2.24t-.82-2.8q-.39 1.5-.8 2.82-.41 1.31-.8 2.28zm10.83-26.55 16.75 42.66h-6.13q-1.04 0-1.69-.52-.64-.51-.97-1.28l-3.18-8.7h-17.68l-3.18 8.7q-.24.68-.92 1.24-.67.56-1.68.56h-6.19l16.78-42.66zm31.09 26.79q1.36 0 2.36-.37t1.67-1.02q.66-.65 1-1.56.34-.92.34-2.01 0-2.24-1.34-3.55-1.35-1.31-4.03-1.31-2.69 0-4.03 1.31t-1.34 3.55q0 1.06.34 1.98.34.91 1 1.58.67.66 1.68 1.03 1.02.37 2.35.37m8.23 17.23q0-.89-.53-1.45t-1.45-.87q-.91-.31-2.14-.46-1.22-.14-2.59-.22-1.37-.07-2.83-.13t-2.85-.24q-1.21.68-1.96 1.6-.75.91-.75 2.12 0 .8.39 1.49.4.69 1.27 1.2.87.5 2.26.78t3.39.28q2.04 0 3.51-.31 1.48-.31 2.44-.86.95-.54 1.4-1.3.44-.75.44-1.63m-1.45-30.59h8.71v2.71q0 1.3-1.57 1.59l-2.71.5q.62 1.57.62 3.43 0 2.24-.9 4.05-.9 1.82-2.49 3.08-1.6 1.27-3.76 1.97-2.17.69-4.68.69-.89 0-1.71-.09-.83-.09-1.62-.23-1.42.85-1.42 1.91 0 .92.84 1.35.84.42 2.23.6 1.38.18 3.15.22 1.77.05 3.63.19 1.86.15 3.63.52t3.16 1.16q1.38.8 2.23 2.17.84 1.37.84 3.53 0 2-.99 3.89t-2.86 3.37q-1.88 1.47-4.61 2.37-2.72.9-6.21.9-3.42 0-5.95-.66-2.54-.67-4.22-1.77-1.68-1.11-2.51-2.56-.83-1.44-.83-3 0-2.13 1.29-3.56 1.28-1.43 3.52-2.29-1.21-.62-1.92-1.65-.7-1.03-.7-2.71 0-.68.25-1.4.25-.73.73-1.43.49-.71 1.23-1.35.74-.63 1.74-1.13-2.3-1.24-3.61-3.31-1.32-2.06-1.32-4.83 0-2.25.9-4.06t2.51-3.1q1.61-1.28 3.81-1.96 2.19-.68 4.79-.68 1.95 0 3.66.4t3.12 1.17m19.74.79.44 3.42q1.42-2.71 3.37-4.26 1.94-1.55 4.6-1.55 2.09 0 3.36.92l-.47 5.45q-.15.54-.43.76t-.75.22q-.44 0-1.31-.15t-1.7-.15q-1.21 0-2.15.36-.95.35-1.7 1.01-.75.67-1.33 1.61-.57.95-1.07 2.16v18.64h-7.29v-30.27h4.28q1.12 0 1.56.4t.59 1.43m15.81-1.83h7.32v30.27h-7.32zm8.32-8.82q0 .95-.38 1.77-.39.83-1.02 1.45t-1.49.99q-.86.36-1.83.36-.94 0-1.78-.36-.84-.37-1.46-.99t-.99-1.45q-.37-.82-.37-1.77 0-.97.37-1.83.37-.85.99-1.47t1.46-.99 1.78-.37q.97 0 1.83.37t1.49.99 1.02 1.47q.38.86.38 1.83m30.03 12.57-1.92 2.65q-.32.42-.63.65-.31.24-.9.24-.56 0-1.09-.34t-1.27-.77q-.74-.42-1.75-.76-1.02-.34-2.53-.34-1.91 0-3.36.69t-2.4 1.99q-.96 1.3-1.44 3.14-.47 1.85-.47 4.18 0 2.42.52 4.3.52 1.89 1.49 3.18.97 1.28 2.36 1.94 1.39.67 3.13.67t2.81-.43q1.08-.43 1.82-.95.73-.51 1.28-.94t1.22-.43q.89 0 1.33.68l2.1 2.66q-1.21 1.41-2.63 2.37-1.41.96-2.93 1.54-1.52.57-3.13.81-1.61.23-3.2.23-2.8 0-5.28-1.04-2.48-1.05-4.34-3.06-1.86-2-2.93-4.91-1.08-2.91-1.08-6.62 0-3.34.96-6.18.96-2.85 2.82-4.93 1.85-2.08 4.6-3.26 2.74-1.18 6.31-1.18 3.39 0 5.94 1.09 2.56 1.09 4.59 3.13m23.63-3.75h7.29v30.27h-4.46q-1.44 0-1.83-1.33l-.5-2.42q-1.86 1.89-4.1 3.06-2.24 1.16-5.28 1.16-2.48 0-4.38-.84t-3.2-2.37q-1.3-1.54-1.96-3.65-.67-2.11-.67-4.64v-19.24h7.29v19.24q0 2.77 1.28 4.29 1.29 1.52 3.85 1.52 1.89 0 3.54-.84 1.66-.84 3.13-2.32zm14.57-13.57h7.29v43.84h-7.29zm24.67 44.31q-3.96 0-6.07-2.23-2.11-2.22-2.11-6.15v-16.9h-3.09q-.59 0-1.01-.38-.41-.39-.41-1.15v-2.89l4.87-.8 1.53-8.26q.15-.59.56-.92.42-.32 1.07-.32h3.77v9.53h8.08v5.19h-8.08v16.4q0 1.42.69 2.21.7.8 1.91.8.68 0 1.13-.16.46-.16.8-.34t.6-.34q.27-.16.54-.16.32 0 .53.16.2.16.44.49l2.18 3.54q-1.59 1.32-3.66 2-2.06.68-4.27.68m30.65-30.74h7.28v30.27h-4.45q-1.45 0-1.83-1.33l-.5-2.42q-1.86 1.89-4.1 3.06-2.24 1.16-5.28 1.16-2.48 0-4.38-.84-1.91-.84-3.2-2.37-1.3-1.54-1.97-3.65-.66-2.11-.66-4.64v-19.24h7.29v19.24q0 2.77 1.28 4.29t3.85 1.52q1.89 0 3.54-.84t3.13-2.32zm20.91 1.83.44 3.42q1.42-2.71 3.37-4.26 1.94-1.55 4.6-1.55 2.09 0 3.36.92l-.47 5.45q-.15.54-.43.76t-.75.22q-.44 0-1.31-.15t-1.7-.15q-1.21 0-2.15.36-.95.35-1.7 1.01-.75.67-1.33 1.61-.57.95-1.07 2.16v18.64h-7.29v-30.27h4.28q1.12 0 1.56.4t.59 1.43m31.57 20.62v-5.1q-3.16.15-5.31.54-2.16.4-3.45 1.02-1.3.62-1.86 1.45-.56.82-.56 1.8 0 1.91 1.13 2.74 1.14.83 2.97.83 2.24 0 3.88-.81 1.63-.82 3.2-2.47m-15.4-15.9-1.3-2.33q5.22-4.78 12.57-4.78 2.65 0 4.75.87 2.09.87 3.54 2.42 1.44 1.55 2.19 3.7.76 2.16.76 4.72v19.12h-3.31q-1.03 0-1.59-.31t-.89-1.25l-.64-2.19q-1.15 1.04-2.25 1.82-1.09.78-2.27 1.31t-2.52.81-2.96.28q-1.92 0-3.54-.51-1.63-.52-2.81-1.55-1.18-1.04-1.83-2.57t-.65-3.57q0-1.15.39-2.29.38-1.13 1.25-2.16.87-1.04 2.26-1.95 1.39-.92 3.41-1.59 2.02-.68 4.7-1.11 2.69-.43 6.14-.52v-1.77q0-3.03-1.3-4.49-1.3-1.47-3.75-1.47-1.77 0-2.93.42-1.17.41-2.05.93-.89.51-1.61.93-.72.41-1.61.41-.77 0-1.3-.4t-.85-.93m29.44-20.12h7.29v43.84h-7.29zm80.59 1.18h6.23l-13.25 42.66h-7.17l-9.32-29.15q-.38-1.06-.71-2.59-.17.74-.35 1.38-.18.65-.38 1.21l-9.41 29.15h-7.2l-13.22-42.66h6.64q1.03 0 1.73.49.69.49.92 1.31l7.26 25.52q.24.94.46 2.05l.46 2.32q.23-1.24.51-2.33.28-1.1.61-2.04l8.37-25.52q.24-.68.93-1.24.7-.56 1.7-.56h2.33q1.03 0 1.68.5.65.51.98 1.3l8.34 25.52q.62 1.83 1.13 4.22.38-2.33.85-4.22l7.26-25.52q.17-.74.9-1.27.72-.53 1.72-.53m10.56 12.39h7.32v30.27h-7.32zm8.32-8.82q0 .95-.38 1.77-.38.83-1.02 1.45-.63.62-1.49.99-.85.36-1.83.36-.94 0-1.78-.36-.84-.37-1.46-.99t-.99-1.45q-.37-.82-.37-1.77 0-.97.37-1.83.37-.85.99-1.47t1.46-.99 1.78-.37q.98 0 1.83.37.86.37 1.49.99.64.62 1.02 1.47.38.86.38 1.83m12.75 10.15.5 2.39q.91-.91 1.93-1.7 1.02-.78 2.15-1.32 1.14-.55 2.44-.86t2.83-.31q2.48 0 4.4.84 1.91.84 3.2 2.36 1.28 1.52 1.94 3.63.67 2.11.67 4.65v19.26h-7.29v-19.26q0-2.78-1.27-4.3t-3.86-1.52q-1.89 0-3.54.86t-3.13 2.33v21.89h-7.29v-30.27h4.46q1.41 0 1.86 1.33m45.96 19.97v-13.57q-1.24-1.5-2.7-2.12t-3.14-.62q-1.65 0-2.98.62t-2.27 1.87q-.95 1.25-1.45 3.19-.5 1.93-.5 4.55 0 2.66.43 4.5.42 1.85 1.22 3.01.8 1.17 1.95 1.68 1.15.52 2.56.52 2.28 0 3.87-.94 1.59-.95 3.01-2.69m0-34.87h7.28v43.84h-4.45q-1.45 0-1.83-1.33l-.62-2.92q-1.83 2.1-4.2 3.39-2.38 1.3-5.53 1.3-2.48 0-4.55-1.03-2.06-1.03-3.55-2.99-1.49-1.97-2.3-4.86t-.81-6.61q0-3.36.91-6.25.92-2.89 2.63-5.01 1.71-2.13 4.1-3.32 2.39-1.2 5.37-1.2 2.53 0 4.33.8t3.22 2.15zm37.91 22.63h5.93q2.18 0 3.8-.55 1.62-.54 2.7-1.56t1.61-2.48.53-3.26q0-1.71-.53-3.1-.53-1.38-1.6-2.36-1.06-.97-2.68-1.48-1.62-.52-3.83-.52h-5.93zm-7.94-21.45h13.87q4.27 0 7.4 1.01 3.13 1 5.16 2.8 2.04 1.8 3.03 4.31.98 2.5.98 5.48 0 3.1-1.03 5.68t-3.1 4.44q-2.06 1.86-5.17 2.89-3.12 1.03-7.27 1.03h-5.93v15.02h-7.94zm48.76 11.92q3.37 0 6.13 1.09 2.75 1.09 4.72 3.1 1.96 2.01 3.02 4.9t1.06 6.46q0 3.6-1.06 6.49t-3.02 4.92q-1.97 2.04-4.72 3.13-2.76 1.09-6.13 1.09-3.39 0-6.16-1.09t-4.74-3.13q-1.96-2.03-3.03-4.92-1.08-2.89-1.08-6.49 0-3.57 1.08-6.46 1.07-2.89 3.03-4.9 1.97-2.01 4.74-3.1t6.16-1.09m0 25.58q3.78 0 5.59-2.54 1.82-2.54 1.82-7.43 0-4.9-1.82-7.47-1.81-2.56-5.59-2.56-3.83 0-5.67 2.58-1.85 2.58-1.85 7.45 0 4.86 1.85 7.42 1.84 2.55 5.67 2.55m58.18-25.11h5.54l-9.61 30.27h-5.84q-1.01 0-1.39-1.3l-5.43-17.49q-.26-.89-.49-1.76-.22-.87-.36-1.75-.18.88-.4 1.78t-.49 1.79l-5.52 17.43q-.35 1.3-1.56 1.3h-5.6l-9.59-30.27h5.81q.8 0 1.36.39.56.38.73.97l4.34 16.17q.33 1.32.58 2.59t.42 2.54q.33-1.27.7-2.54t.78-2.59l5.01-16.23q.18-.59.7-.97.51-.39 1.25-.39h3.22q.76 0 1.31.39.54.38.72.97l4.87 16.23q.38 1.32.72 2.61.34 1.28.67 2.55.38-2.51 1.09-5.16l4.45-16.17q.21-.59.74-.97.53-.39 1.27-.39m15.43 11.66h13.74q0-1.42-.39-2.67-.4-1.26-1.2-2.2-.8-.95-2.02-1.49-1.22-.55-2.85-.55-3.15 0-4.97 1.8-1.81 1.8-2.31 5.11m18.58 4.39h-18.73q.18 2.33.82 4.03.65 1.69 1.72 2.8 1.06 1.11 2.52 1.65 1.46.55 3.23.55t3.05-.42q1.28-.41 2.24-.91t1.69-.91q.72-.42 1.4-.42.91 0 1.35.68l2.1 2.66q-1.21 1.41-2.72 2.37-1.5.96-3.14 1.54-1.64.57-3.33.81-1.7.23-3.29.23-3.16 0-5.87-1.04-2.72-1.05-4.72-3.1-2.01-2.05-3.16-5.08-1.15-3.02-1.15-7 0-3.1 1-5.83 1.01-2.73 2.88-4.75t4.57-3.2 6.1-1.18q2.86 0 5.28.92 2.41.91 4.16 2.67 1.74 1.75 2.72 4.3.99 2.55.99 5.83 0 1.65-.35 2.23-.36.57-1.36.57m13.6-14.22.44 3.42q1.42-2.71 3.37-4.26 1.94-1.55 4.6-1.55 2.09 0 3.36.92l-.47 5.45q-.15.54-.43.76t-.75.22q-.44 0-1.31-.15t-1.7-.15q-1.21 0-2.15.36-.95.35-1.7 1.01-.75.67-1.33 1.61-.57.95-1.07 2.16v18.64h-7.29v-30.27h4.28q1.12 0 1.56.4t.59 1.43"/></svg>