<svg xmlns="http://www.w3.org/2000/svg" width="1080" height="720" viewBox="0 0 1080 720"><rect width="100%" height="100%" fill="#4169E1"/><path fill="#FFFFFF" d="M225.105 360.475h5.93q2.18 0 3.8-.55 1.63-.54 2.7-1.56 1.08-1.02 1.61-2.48t.53-3.26q0-1.71-.53-3.1-.53-1.38-1.59-2.36-1.06-.97-2.69-1.48-1.62-.52-3.83-.52h-5.93zm-7.94-21.45h13.87q4.28 0 7.4 1.01 3.13 1 5.17 2.8 2.03 1.8 3.02 4.31.99 2.5.99 5.48 0 3.1-1.03 5.68-1.04 2.58-3.1 4.44-2.07 1.86-5.18 2.89t-7.27 1.03h-5.93v15.02h-7.94zm41.81 14.22.44 3.42q1.41-2.71 3.36-4.26t4.6-1.55q2.1 0 3.37.92l-.48 5.45q-.14.54-.42.76t-.76.22q-.44 0-1.31-.15t-1.7-.15q-1.2 0-2.15.36-.94.35-1.69 1.01-.76.67-1.33 1.61-.58.95-1.08 2.16v18.64h-7.29v-30.27h4.28q1.12 0 1.57.4.44.4.59 1.43m21.32 9.83h13.75q0-1.42-.4-2.67-.4-1.26-1.19-2.2-.8-.95-2.02-1.49-1.23-.55-2.85-.55-3.16 0-4.97 1.8t-2.32 5.11m18.59 4.39h-18.73q.17 2.33.82 4.03.65 1.69 1.71 2.8 1.07 1.11 2.53 1.65 1.46.55 3.23.55t3.05-.42q1.28-.41 2.24-.91t1.68-.91q.73-.42 1.4-.42.92 0 1.36.68l2.1 2.66q-1.21 1.41-2.72 2.37-1.5.96-3.14 1.54-1.64.57-3.33.81-1.7.23-3.29.23-3.16 0-5.87-1.04-2.72-1.05-4.72-3.1-2.01-2.05-3.16-5.08-1.15-3.02-1.15-7 0-3.1 1-5.83 1.01-2.73 2.88-4.75t4.57-3.2 6.09-1.18q2.86 0 5.28.92 2.42.91 4.16 2.67 1.74 1.75 2.73 4.3t.99 5.83q0 1.65-.35 2.23-.36.57-1.36.57m30.77-12.3-1.92 2.65q-.32.42-.63.65-.31.24-.9.24-.56 0-1.1-.34-.53-.34-1.26-.77-.74-.42-1.76-.76t-2.52-.34q-1.92 0-3.36.69-1.45.69-2.41 1.99t-1.43 3.14q-.47 1.85-.47 4.18 0 2.42.51 4.3.52 1.89 1.49 3.18.98 1.28 2.36 1.94 1.39.67 3.13.67t2.82-.43 1.81-.95q.74-.51 1.29-.94.54-.43 1.22-.43.89 0 1.33.68l2.09 2.66q-1.21 1.41-2.62 2.37-1.42.96-2.94 1.54-1.52.57-3.13.81-1.6.23-3.2.23-2.8 0-5.28-1.04-2.47-1.05-4.33-3.06-1.86-2-2.94-4.91t-1.08-6.62q0-3.34.96-6.18.96-2.85 2.82-4.93t4.6-3.26q2.75-1.18 6.32-1.18 3.39 0 5.94 1.09t4.59 3.13m5.07-3.75h7.32v30.27h-7.32zm8.32-8.82q0 .95-.38 1.77-.39.83-1.02 1.45-.64.62-1.49.99-.86.36-1.83.36-.94 0-1.78-.36-.85-.37-1.46-.99-.62-.62-.99-1.45-.37-.82-.37-1.77 0-.97.37-1.83.37-.85.99-1.47.61-.62 1.46-.99.84-.37 1.78-.37.97 0 1.83.37.85.37 1.49.99.63.62 1.02 1.47.38.86.38 1.83m26.55 12.1-1.65 2.62q-.3.47-.62.67-.33.19-.83.19-.53 0-1.13-.3-.61-.29-1.4-.66-.8-.37-1.82-.66-1.02-.3-2.4-.3-2.16 0-3.38.92-1.22.91-1.22 2.38 0 .98.63 1.64.63.67 1.68 1.17t2.38.9q1.32.4 2.7.87 1.37.47 2.69 1.07 1.33.61 2.38 1.54t1.68 2.23q.63 1.29.63 3.12 0 2.19-.78 4.03t-2.31 3.19q-1.54 1.34-3.79 2.09-2.26.75-5.21.75-1.56 0-3.05-.28t-2.86-.78q-1.38-.5-2.54-1.18-1.17-.68-2.05-1.48l1.68-2.77q.32-.5.77-.77.44-.26 1.12-.26t1.28.38q.61.39 1.4.83.8.44 1.88.82 1.07.39 2.72.39 1.3 0 2.23-.31t1.54-.81q.6-.5.88-1.17.28-.66.28-1.37 0-1.06-.63-1.74-.64-.68-1.69-1.18-1.04-.5-2.38-.9-1.35-.4-2.75-.87t-2.74-1.11q-1.34-.63-2.39-1.6-1.05-.98-1.68-2.39-.64-1.42-.64-3.43 0-1.85.74-3.54.74-1.68 2.17-2.93t3.57-2.01q2.14-.75 4.94-.75 3.13 0 5.69 1.03 2.57 1.04 4.28 2.72m6.05-3.28h7.31v30.27h-7.31zm8.32-8.82q0 .95-.39 1.77-.38.83-1.01 1.45-.64.62-1.49.99-.86.36-1.83.36-.95 0-1.79-.36-.84-.37-1.46-.99t-.99-1.45q-.37-.82-.37-1.77 0-.97.37-1.83.37-.85.99-1.47t1.46-.99 1.79-.37q.97 0 1.83.37.85.37 1.49.99.63.62 1.01 1.47.39.86.39 1.83m19.82 8.35q3.36 0 6.12 1.09t4.72 3.1 3.03 4.9q1.06 2.89 1.06 6.46 0 3.6-1.06 6.49-1.07 2.89-3.03 4.92-1.96 2.04-4.72 3.13t-6.12 1.09q-3.39 0-6.16-1.09-2.78-1.09-4.74-3.13-1.96-2.03-3.04-4.92-1.07-2.89-1.07-6.49 0-3.57 1.07-6.46 1.08-2.89 3.04-4.9t4.74-3.1q2.77-1.09 6.16-1.09m0 25.58q3.78 0 5.59-2.54 1.82-2.54 1.82-7.43 0-4.9-1.82-7.47-1.81-2.56-5.59-2.56-3.83 0-5.68 2.58-1.84 2.58-1.84 7.45 0 4.86 1.84 7.42 1.85 2.55 5.68 2.55m26.82-23.78.5 2.39q.91-.91 1.93-1.7 1.02-.78 2.15-1.32 1.14-.55 2.44-.86t2.83-.31q2.48 0 4.39.84 1.92.84 3.21 2.36 1.28 1.52 1.94 3.63.67 2.11.67 4.65v19.26h-7.29v-19.26q0-2.78-1.27-4.3t-3.86-1.52q-1.89 0-3.54.86-1.66.86-3.13 2.33v21.89h-7.29v-30.27h4.46q1.41 0 1.86 1.33m71.74 18.88q.65 0 1.15.5l3.13 3.39q-2.6 3.22-6.39 4.93t-9.1 1.71q-4.75 0-8.54-1.62t-6.48-4.51q-2.68-2.89-4.11-6.91-1.43-4.01-1.43-8.76 0-4.81 1.53-8.8 1.54-4 4.32-6.89 2.79-2.89 6.66-4.5 3.86-1.61 8.55-1.61 4.66 0 8.28 1.53 3.61 1.54 6.15 4.02l-2.66 3.68q-.23.36-.6.62-.37.27-1.02.27-.44 0-.91-.25-.48-.25-1.04-.62t-1.3-.81q-.73-.44-1.71-.81-.97-.37-2.25-.62-1.29-.25-2.97-.25-2.86 0-5.23 1.01-2.38 1.02-4.09 2.95-1.71 1.94-2.65 4.72-.95 2.79-.95 6.36 0 3.6 1.02 6.4 1.02 2.81 2.76 4.72 1.74 1.92 4.1 2.94t5.07 1.02q1.62 0 2.94-.18 1.31-.18 2.42-.56 1.1-.39 2.09-.99t1.96-1.49q.3-.27.62-.43.33-.16.68-.16m24.57 2.24v-5.1q-3.15.15-5.31.54-2.15.4-3.45 1.02t-1.86 1.45q-.56.82-.56 1.8 0 1.91 1.14 2.74 1.13.83 2.96.83 2.25 0 3.88-.81 1.64-.82 3.2-2.47m-15.4-15.9-1.29-2.33q5.22-4.78 12.56-4.78 2.66 0 4.75.87 2.1.87 3.54 2.42 1.45 1.55 2.2 3.7.75 2.16.75 4.72v19.12h-3.3q-1.03 0-1.59-.31t-.89-1.25l-.65-2.19q-1.15 1.04-2.24 1.82t-2.27 1.31-2.52.81q-1.35.28-2.97.28-1.92 0-3.54-.51-1.62-.52-2.8-1.55-1.18-1.04-1.83-2.57t-.65-3.57q0-1.15.38-2.29.39-1.13 1.26-2.16.87-1.04 2.26-1.95 1.38-.92 3.4-1.59 2.02-.68 4.71-1.11 2.68-.43 6.13-.52v-1.77q0-3.03-1.29-4.49-1.3-1.47-3.75-1.47-1.77 0-2.94.42-1.16.41-2.05.93-.88.51-1.6.93-.73.41-1.61.41-.77 0-1.3-.4t-.86-.93m29.45-20.12h7.28v43.84h-7.28zm14.8 13.57h7.32v30.27h-7.32zm8.32-8.82q0 .95-.38 1.77-.38.83-1.02 1.45-.63.62-1.49.99-.85.36-1.83.36-.94 0-1.78-.36-.84-.37-1.46-.99t-.99-1.45q-.37-.82-.37-1.77 0-.97.37-1.83.37-.85.99-1.47t1.46-.99 1.78-.37q.98 0 1.83.37.86.37 1.49.99.64.62 1.02 1.47.38.86.38 1.83m13.72 17.67v13.57q1.24 1.51 2.7 2.13t3.08.62q1.68 0 3.03-.61 1.34-.6 2.28-1.89.95-1.28 1.45-3.27t.5-4.77q0-4.98-1.65-7.21t-4.75-2.23q-2.1 0-3.66.96t-2.98 2.7m0-22.42v17.29q1.83-1.92 4.06-3.05 2.22-1.14 5.09-1.14 2.62 0 4.73 1.03 2.11 1.04 3.6 2.97t2.29 4.67q.79 2.75.79 6.17 0 3.69-.91 6.7-.92 3-2.61 5.14-1.7 2.14-4.09 3.32t-5.31 1.18q-1.41 0-2.56-.28-1.16-.28-2.13-.78t-1.78-1.22q-.81-.73-1.55-1.61l-.33 2.03q-.17.77-.6 1.1-.43.32-1.17.32h-4.81v-43.84zm32.63 15.4.44 3.42q1.42-2.71 3.36-4.26 1.95-1.55 4.61-1.55 2.09 0 3.36.92l-.47 5.45q-.15.54-.43.76t-.75.22q-.45 0-1.32-.15t-1.69-.15q-1.21 0-2.16.36-.94.35-1.69 1.01-.75.67-1.33 1.61-.57.95-1.08 2.16v18.64h-7.28v-30.27h4.27q1.13 0 1.57.4t.59 1.43m31.56 20.62v-5.1q-3.15.15-5.31.54-2.15.4-3.45 1.02t-1.86 1.45q-.56.82-.56 1.8 0 1.91 1.14 2.74 1.13.83 2.96.83 2.25 0 3.88-.81 1.64-.82 3.2-2.47m-15.4-15.9-1.29-2.33q5.22-4.78 12.56-4.78 2.66 0 4.75.87 2.1.87 3.54 2.42 1.45 1.55 2.2 3.7.75 2.16.75 4.72v19.12h-3.3q-1.03 0-1.59-.31t-.89-1.25l-.65-2.19q-1.15 1.04-2.24 1.82t-2.27 1.31-2.52.81q-1.35.28-2.97.28-1.92 0-3.54-.51-1.62-.52-2.8-1.55-1.18-1.04-1.83-2.57t-.65-3.57q0-1.15.38-2.29.39-1.13 1.26-2.16.87-1.04 2.25-1.95 1.39-.92 3.41-1.59 2.02-.68 4.71-1.11 2.68-.43 6.13-.52v-1.77q0-3.03-1.29-4.49-1.3-1.47-3.75-1.47-1.77 0-2.94.42-1.16.41-2.05.93-.88.51-1.6.93-.73.41-1.61.41-.77 0-1.3-.4t-.86-.93m39.45 24.19q-3.96 0-6.07-2.23-2.11-2.22-2.11-6.15v-16.9h-3.09q-.59 0-1.01-.38-.41-.39-.41-1.15v-2.89l4.87-.8 1.53-8.26q.15-.59.56-.92.42-.32 1.06-.32h3.78v9.53h8.08v5.19h-8.08v16.4q0 1.42.69 2.21.7.8 1.91.8.68 0 1.13-.16.46-.16.8-.34t.6-.34q.27-.16.53-.16.33 0 .54.16.2.16.44.49l2.18 3.54q-1.59 1.32-3.66 2-2.06.68-4.27.68m12.09-30.74h7.32v30.27h-7.32zm8.32-8.82q0 .95-.38 1.77-.39.83-1.02 1.45-.64.62-1.49.99-.86.36-1.83.36-.94 0-1.78-.36-.85-.37-1.47-.99-.61-.62-.98-1.45-.37-.82-.37-1.77 0-.97.37-1.83.37-.85.98-1.47.62-.62 1.47-.99.84-.37 1.78-.37.97 0 1.83.37.85.37 1.49.99.63.62 1.02 1.47.38.86.38 1.83m19.82 8.35q3.37 0 6.13 1.09 2.75 1.09 4.72 3.1 1.96 2.01 3.02 4.9t1.06 6.46q0 3.6-1.06 6.49t-3.02 4.92q-1.97 2.04-4.72 3.13-2.76 1.09-6.13 1.09-3.39 0-6.16-1.09t-4.74-3.13q-1.96-2.03-3.03-4.92-1.08-2.89-1.08-6.49 0-3.57 1.08-6.46 1.07-2.89 3.03-4.9 1.97-2.01 4.74-3.1t6.16-1.09m0 25.58q3.78 0 5.59-2.54 1.82-2.54 1.82-7.43 0-4.9-1.82-7.47-1.81-2.56-5.59-2.56-3.83 0-5.67 2.58-1.85 2.58-1.85 7.45 0 4.86 1.85 7.42 1.84 2.55 5.67 2.55m26.82-23.78.5 2.39q.92-.91 1.93-1.7 1.02-.78 2.16-1.32 1.13-.55 2.43-.86t2.83-.31q2.48 0 4.4.84t3.2 2.36 1.95 3.63q.66 2.11.66 4.65v19.26h-7.29v-19.26q0-2.78-1.27-4.3-1.26-1.52-3.86-1.52-1.89 0-3.54.86t-3.13 2.33v21.89h-7.28v-30.27h4.45q1.42 0 1.86 1.33m50.39 22.39h17.05v6.55h-24.99v-42.66h7.94zm37.55-1.27v-5.1q-3.16.15-5.31.54-2.15.4-3.45 1.02t-1.86 1.45q-.56.82-.56 1.8 0 1.91 1.13 2.74 1.14.83 2.97.83 2.24 0 3.88-.81 1.64-.82 3.2-2.47m-15.4-15.9-1.3-2.33q5.22-4.78 12.57-4.78 2.65 0 4.75.87 2.09.87 3.54 2.42 1.44 1.55 2.2 3.7.75 2.16.75 4.72v19.12h-3.31q-1.03 0-1.59-.31t-.88-1.25l-.65-2.19q-1.15 1.04-2.24 1.82-1.1.78-2.28 1.31t-2.52.81-2.96.28q-1.92 0-3.54-.51-1.63-.52-2.81-1.55-1.18-1.04-1.82-2.57-.65-1.53-.65-3.57 0-1.15.38-2.29.38-1.13 1.25-2.16.87-1.04 2.26-1.95 1.39-.92 3.41-1.59 2.02-.68 4.7-1.11 2.69-.43 6.14-.52v-1.77q0-3.03-1.3-4.49-1.3-1.47-3.75-1.47-1.77 0-2.93.42-1.17.41-2.05.93-.89.51-1.61.93-.72.41-1.61.41-.76 0-1.29-.4-.54-.4-.86-.93m36.64 2.3v13.57q1.24 1.51 2.7 2.13t3.08.62q1.68 0 3.02-.61 1.35-.6 2.29-1.89.94-1.28 1.45-3.27.5-1.99.5-4.77 0-4.98-1.65-7.21-1.66-2.23-4.75-2.23-2.1 0-3.66.96-1.57.96-2.98 2.7m0-22.42v17.29q1.83-1.92 4.06-3.05 2.22-1.14 5.08-1.14 2.63 0 4.74 1.03 2.11 1.04 3.6 2.97t2.28 4.67q.8 2.75.8 6.17 0 3.69-.91 6.7-.92 3-2.61 5.14-1.7 2.14-4.09 3.32t-5.31 1.18q-1.42 0-2.57-.28t-2.12-.78-1.79-1.22q-.81-.73-1.54-1.61l-.33 2.03q-.18.77-.6 1.1-.43.32-1.17.32h-4.81v-43.84z"/></svg>