<svg xmlns="http://www.w3.org/2000/svg" width="1080" height="720" viewBox="0 0 1080 720"><rect width="100%" height="100%" fill="#708090"/><path fill="#FFFFFF" d="M243.23 366.565q.62 0 1.09.48l2.97 3.22q-2.46 3.05-6.06 4.67-3.6 1.63-8.64 1.63-4.51 0-8.11-1.54-3.59-1.54-6.14-4.29-2.55-2.74-3.91-6.55t-1.36-8.31q0-4.57 1.46-8.36 1.46-3.8 4.1-6.54 2.65-2.74 6.32-4.27 3.66-1.53 8.12-1.53 4.42 0 7.85 1.46t5.84 3.81l-2.52 3.5q-.23.33-.58.59-.35.25-.96.25-.42 0-.87-.24t-.98-.59-1.23-.77-1.63-.77q-.92-.35-2.14-.59-1.22-.23-2.81-.23-2.72 0-4.97.96-2.26.97-3.88 2.8-1.62 1.84-2.52 4.48-.9 2.65-.9 6.04 0 3.41.97 6.07t2.62 4.48 3.89 2.79q2.24.96 4.82.96 1.54 0 2.78-.16 1.25-.17 2.3-.54 1.05-.36 1.99-.93.93-.58 1.86-1.42.28-.25.59-.4.3-.16.64-.16m20.86-19.63q3.19 0 5.81 1.04t4.48 2.94 2.87 4.65q1.01 2.74 1.01 6.13 0 3.42-1.01 6.16t-2.87 4.68q-1.86 1.93-4.48 2.96-2.62 1.04-5.81 1.04-3.22 0-5.85-1.04-2.63-1.03-4.5-2.96-1.86-1.94-2.88-4.68t-1.02-6.16q0-3.39 1.02-6.13 1.02-2.75 2.88-4.65 1.87-1.9 4.5-2.94t5.85-1.04m0 24.28q3.58 0 5.31-2.41 1.72-2.41 1.72-7.05 0-4.65-1.72-7.09-1.73-2.43-5.31-2.43-3.64 0-5.39 2.45t-1.75 7.07 1.75 7.04 5.39 2.42m26.38 4.9h-6.92v-28.73h4.23q1.34 0 1.76 1.26l.45 2.13q.76-.84 1.58-1.54.83-.7 1.77-1.2.93-.51 2.01-.8 1.08-.3 2.37-.3 2.71 0 4.46 1.47t2.62 3.91q.67-1.43 1.68-2.45t2.21-1.67q1.21-.64 2.57-.95 1.35-.31 2.73-.31 2.38 0 4.22.73 1.85.73 3.11 2.13t1.92 3.42q.66 2.01.66 4.62v18.28h-6.92v-18.28q0-2.75-1.2-4.13-1.21-1.39-3.53-1.39-1.06 0-1.97.36-.91.37-1.6 1.05-.69.69-1.08 1.73-.39 1.03-.39 2.38v18.28h-6.94v-18.28q0-2.89-1.17-4.2-1.16-1.32-3.4-1.32-1.51 0-2.81.74t-2.42 2.03zm46.9 0h-6.92v-28.73h4.23q1.34 0 1.76 1.26l.45 2.13q.76-.84 1.58-1.54.83-.7 1.77-1.2.93-.51 2.01-.8 1.08-.3 2.37-.3 2.71 0 4.46 1.47t2.62 3.91q.67-1.43 1.68-2.45t2.21-1.67q1.21-.64 2.57-.95 1.35-.31 2.73-.31 2.38 0 4.22.73 1.85.73 3.11 2.13t1.92 3.42q.66 2.01.66 4.62v18.28h-6.92v-18.28q0-2.75-1.2-4.13-1.21-1.39-3.53-1.39-1.06 0-1.97.36-.91.37-1.6 1.05-.69.69-1.08 1.73-.39 1.03-.39 2.38v18.28h-6.94v-18.28q0-2.89-1.17-4.2-1.16-1.32-3.4-1.32-1.51 0-2.81.74t-2.42 2.03zm45.44-17.67h13.05q0-1.34-.38-2.53t-1.13-2.09q-.76-.89-1.92-1.41t-2.7-.52q-3 0-4.72 1.71t-2.2 4.84m17.64 4.17h-17.78q.17 2.22.78 3.83.62 1.61 1.63 2.66t2.39 1.56q1.39.52 3.07.52t2.9-.39q1.21-.39 2.12-.87.91-.47 1.6-.87.69-.39 1.33-.39.87 0 1.29.65l1.99 2.52q-1.15 1.34-2.58 2.25t-2.98 1.46q-1.56.54-3.17.77-1.61.22-3.12.22-2.99 0-5.57-.99-2.58-1-4.48-2.94-1.9-1.95-3-4.82-1.09-2.87-1.09-6.65 0-2.94.95-5.53.96-2.59 2.73-4.51 1.78-1.92 4.34-3.04 2.57-1.12 5.79-1.12 2.71 0 5.01.87 2.29.87 3.95 2.54 1.65 1.66 2.59 4.08.93 2.43.93 5.53 0 1.57-.33 2.12-.34.54-1.29.54m12.91-13.49.42 3.25q1.34-2.58 3.19-4.05t4.37-1.47q1.99 0 3.19.87l-.45 5.18q-.14.5-.4.71-.27.21-.72.21-.42 0-1.24-.14-.83-.14-1.61-.14-1.15 0-2.05.34-.89.33-1.61.96-.71.63-1.26 1.53-.54.9-1.02 2.04v17.7h-6.92v-28.73h4.06q1.07 0 1.49.38t.56 1.36m37.18 1.82-1.82 2.52q-.31.39-.6.61-.29.23-.85.23-.54 0-1.04-.32-.5-.33-1.2-.73-.7-.41-1.67-.73t-2.39-.32q-1.82 0-3.2.66-1.37.65-2.28 1.89-.91 1.23-1.36 2.98-.44 1.75-.44 3.96 0 2.3.49 4.09t1.41 3.01 2.24 1.85 2.97.63 2.67-.41 1.72-.9 1.22-.89q.52-.41 1.16-.41.84 0 1.26.65l1.99 2.52q-1.15 1.34-2.49 2.25t-2.79 1.46q-1.44.54-2.96.77-1.53.22-3.04.22-2.66 0-5.01-.99-2.36-1-4.12-2.9-1.76-1.91-2.79-4.66-1.02-2.76-1.02-6.29 0-3.16.91-5.87.91-2.7 2.68-4.67 1.76-1.98 4.36-3.1 2.61-1.12 6-1.12 3.22 0 5.64 1.04t4.35 2.97m4.82-3.56h6.94v28.73h-6.94zm7.89-8.37q0 .9-.36 1.68t-.97 1.37q-.6.59-1.41.94t-1.74.35q-.89 0-1.69-.35t-1.39-.94q-.58-.59-.93-1.37t-.35-1.68q0-.92.35-1.74.35-.81.93-1.4.59-.58 1.39-.93t1.69-.35q.93 0 1.74.35t1.41.93q.61.59.97 1.4.36.82.36 1.74m21.28 29.68v-4.84q-2.99.14-5.04.51-2.04.38-3.27.97t-1.77 1.37q-.53.79-.53 1.71 0 1.82 1.08 2.6 1.08.79 2.81.79 2.13 0 3.69-.77 1.55-.77 3.03-2.34m-14.61-15.09-1.23-2.21q4.95-4.54 11.92-4.54 2.52 0 4.51.83 1.99.82 3.36 2.29t2.09 3.52q.71 2.04.71 4.48v18.14h-3.13q-.98 0-1.52-.29-.53-.3-.84-1.19l-.61-2.08q-1.09.98-2.13 1.73-1.04.74-2.16 1.24-1.12.51-2.39.77-1.27.27-2.81.27-1.82 0-3.36-.49t-2.66-1.47-1.74-2.44q-.62-1.45-.62-3.39 0-1.09.37-2.17.36-1.07 1.19-2.05.82-.98 2.14-1.85t3.23-1.51q1.92-.65 4.47-1.05 2.55-.41 5.82-.49v-1.68q0-2.89-1.23-4.27-1.23-1.39-3.55-1.39-1.68 0-2.79.39t-1.95.88-1.52.89q-.69.39-1.53.39-.73 0-1.23-.38t-.81-.88m27.94-19.1h6.92v41.61h-6.92zm51.97 4.93-1.88 3.56q-.33.58-.71.85t-.94.27q-.59 0-1.27-.44-.69-.43-1.64-.96-.95-.54-2.23-.97-1.27-.43-3.01-.43-1.56 0-2.74.37-1.18.38-1.97 1.05-.8.68-1.19 1.61-.4.94-.4 2.06 0 1.43.8 2.38t2.12 1.63q1.31.67 2.99 1.2t3.45 1.13q1.76.61 3.44 1.4 1.68.8 3 2.02 1.31 1.22 2.11 2.98.8 1.77.8 4.29 0 2.74-.94 5.13-.94 2.4-2.74 4.18-1.81 1.77-4.41 2.8-2.61 1.02-5.97 1.02-1.93 0-3.81-.38-1.87-.38-3.59-1.08-1.73-.7-3.24-1.68t-2.69-2.18l2.22-3.61q.28-.4.72-.66.45-.27.96-.27.7 0 1.51.58.81.57 1.93 1.27t2.62 1.27q1.5.58 3.6.58 3.22 0 4.98-1.53 1.76-1.52 1.76-4.38 0-1.6-.79-2.6-.8-1.01-2.12-1.7-1.31-.68-2.99-1.16t-3.42-1.04-3.42-1.34-2.99-2.04q-1.32-1.26-2.12-3.15-.79-1.89-.79-4.67 0-2.21.88-4.31t2.56-3.72q1.68-1.63 4.14-2.61 2.47-.98 5.66-.98 3.58 0 6.61 1.12 3.02 1.12 5.15 3.14m18.9 7.5q3.19 0 5.81 1.04t4.48 2.94 2.87 4.65q1.01 2.74 1.01 6.13 0 3.42-1.01 6.16t-2.87 4.68q-1.86 1.93-4.48 2.96-2.62 1.04-5.81 1.04-3.22 0-5.85-1.04-2.63-1.03-4.5-2.96-1.86-1.94-2.88-4.68t-1.02-6.16q0-3.39 1.02-6.13 1.02-2.75 2.88-4.65 1.87-1.9 4.5-2.94t5.85-1.04m0 24.28q3.58 0 5.31-2.41 1.72-2.41 1.72-7.05 0-4.65-1.72-7.09-1.73-2.43-5.31-2.43-3.64 0-5.39 2.45t-1.75 7.07 1.75 7.04 5.39 2.42m19.54-36.71h6.92v41.61h-6.92zm29.01 34.19v-4.84q-2.99.14-5.04.51-2.04.38-3.27.97-1.24.59-1.77 1.37-.53.79-.53 1.71 0 1.82 1.08 2.6 1.08.79 2.81.79 2.13 0 3.68-.77 1.56-.77 3.04-2.34m-14.61-15.09-1.24-2.21q4.96-4.54 11.93-4.54 2.52 0 4.51.83 1.99.82 3.36 2.29t2.09 3.52q.71 2.04.71 4.48v18.14h-3.14q-.98 0-1.51-.29-.53-.3-.84-1.19l-.61-2.08q-1.1.98-2.13 1.73-1.04.74-2.16 1.24-1.12.51-2.39.77-1.28.27-2.82.27-1.82 0-3.36-.49t-2.66-1.47-1.73-2.44q-.62-1.45-.62-3.39 0-1.09.37-2.17.36-1.07 1.19-2.05.82-.98 2.14-1.85 1.31-.87 3.23-1.51 1.92-.65 4.47-1.05 2.55-.41 5.82-.49v-1.68q0-2.89-1.23-4.27-1.23-1.39-3.56-1.39-1.68 0-2.78.39-1.11.39-1.95.88t-1.52.89q-.69.39-1.53.39-.73 0-1.23-.38-.51-.38-.81-.88m33.96-4.48.42 3.25q1.34-2.58 3.19-4.05t4.37-1.47q1.99 0 3.19.87l-.45 5.18q-.14.5-.4.71-.27.21-.72.21-.42 0-1.24-.14-.83-.14-1.61-.14-1.15 0-2.05.34-.89.33-1.61.96-.71.63-1.26 1.53-.54.9-1.02 2.04v17.7h-6.91v-28.73h4.06q1.06 0 1.48.38t.56 1.36m52.92-9.69-1.88 3.56q-.33.58-.71.85t-.94.27q-.59 0-1.27-.44-.69-.43-1.64-.96-.95-.54-2.23-.97-1.27-.43-3.01-.43-1.56 0-2.74.37-1.18.38-1.97 1.05-.8.68-1.19 1.61-.4.94-.4 2.06 0 1.43.8 2.38t2.12 1.63q1.31.67 2.99 1.2t3.45 1.13q1.76.61 3.44 1.4 1.68.8 3 2.02 1.31 1.22 2.11 2.98.8 1.77.8 4.29 0 2.74-.94 5.13-.94 2.4-2.74 4.18-1.81 1.77-4.41 2.8-2.61 1.02-5.97 1.02-1.93 0-3.81-.38-1.87-.38-3.59-1.08-1.73-.7-3.24-1.68t-2.69-2.18l2.22-3.61q.28-.4.72-.66.45-.27.96-.27.7 0 1.51.58.81.57 1.93 1.27t2.62 1.27q1.5.58 3.6.58 3.22 0 4.98-1.53 1.76-1.52 1.76-4.38 0-1.6-.79-2.6-.8-1.01-2.12-1.7-1.31-.68-2.99-1.16t-3.42-1.04-3.42-1.34-2.99-2.04q-1.32-1.26-2.12-3.15-.79-1.89-.79-4.67 0-2.21.88-4.31t2.56-3.72q1.68-1.63 4.14-2.61 2.47-.98 5.66-.98 3.58 0 6.61 1.12 3.02 1.12 5.15 3.14m26.74 7.95h5.54l-15.65 36.63q-.31.72-.8 1.1t-1.49.38h-5.16l5.38-11.54-11.62-26.57h6.08q.81 0 1.27.39.46.4.69.9l6.1 14.9q.31.75.52 1.51.21.75.4 1.54.26-.79.51-1.56t.56-1.52l5.77-14.87q.22-.56.74-.92.52-.37 1.16-.37m28.08 3.11-1.56 2.49q-.28.45-.59.63t-.79.18q-.5 0-1.07-.28-.58-.28-1.33-.63-.76-.35-1.73-.63-.96-.28-2.28-.28-2.04 0-3.2.87-1.17.87-1.17 2.27 0 .92.61 1.55.6.63 1.59 1.11 1 .48 2.26.85 1.26.38 2.56.83t2.56 1.02q1.26.58 2.25 1.46 1 .88 1.6 2.11t.6 2.97q0 2.07-.74 3.82t-2.2 3.03q-1.45 1.27-3.6 1.98-2.14.72-4.94.72-1.48 0-2.9-.27-1.41-.26-2.71-.74t-2.41-1.12-1.95-1.4l1.6-2.63q.31-.48.73-.73t1.06-.25q.65 0 1.22.36.57.37 1.33.79t1.78.78 2.59.36q1.23 0 2.11-.29t1.46-.77q.57-.48.84-1.11.26-.63.26-1.3 0-1.01-.6-1.65t-1.59-1.12q-1-.48-2.27-.85-1.28-.38-2.61-.83t-2.6-1.05-2.27-1.53q-.99-.92-1.59-2.26-.61-1.35-.61-3.25 0-1.77.7-3.36.7-1.6 2.06-2.79t3.39-1.9q2.03-.72 4.69-.72 2.97 0 5.4.98 2.44.98 4.06 2.58m15.1 26.07q-3.76 0-5.76-2.12-2-2.11-2-5.83v-16.05h-2.94q-.56 0-.95-.36-.39-.37-.39-1.09v-2.75l4.62-.75 1.45-7.84q.14-.56.53-.87.4-.31 1.01-.31h3.59v9.04h7.67v4.93h-7.67v15.57q0 1.34.65 2.1.66.76 1.81.76.64 0 1.08-.16.43-.15.75-.32.33-.17.58-.32.25-.16.5-.16.31 0 .51.16.19.15.42.46l2.07 3.36q-1.51 1.26-3.47 1.9-1.96.65-4.06.65m16.71-18.12h13.05q0-1.34-.38-2.53t-1.13-2.09q-.76-.89-1.92-1.41t-2.7-.52q-3 0-4.72 1.71t-2.2 4.84m17.64 4.17h-17.78q.17 2.22.79 3.83.61 1.61 1.62 2.66t2.39 1.56q1.39.52 3.07.52t2.9-.39 2.13-.87q.91-.47 1.59-.87.69-.39 1.33-.39.87 0 1.29.65l1.99 2.52q-1.15 1.34-2.58 2.25t-2.98 1.46q-1.55.54-3.16.77-1.61.22-3.13.22-2.99 0-5.57-.99-2.57-1-4.48-2.94-1.9-1.95-2.99-4.82-1.1-2.87-1.1-6.65 0-2.94.96-5.53.95-2.59 2.73-4.51 1.77-1.92 4.34-3.04 2.56-1.12 5.78-1.12 2.71 0 5.01.87t3.95 2.54q1.65 1.66 2.59 4.08.94 2.43.94 5.53 0 1.57-.34 2.12-.34.54-1.29.54m13.72 13.5h-6.91v-28.73h4.22q1.35 0 1.77 1.26l.45 2.13q.75-.84 1.58-1.54.82-.7 1.76-1.2.94-.51 2.02-.8 1.08-.3 2.36-.3 2.72 0 4.47 1.47t2.62 3.91q.67-1.43 1.68-2.45t2.21-1.67q1.2-.64 2.56-.95t2.73-.31q2.38 0 4.23.73t3.11 2.13 1.92 3.42q.65 2.01.65 4.62v18.28h-6.91v-18.28q0-2.75-1.21-4.13-1.2-1.39-3.52-1.39-1.07 0-1.98.36-.91.37-1.59 1.05-.69.69-1.08 1.73-.39 1.03-.39 2.38v18.28h-6.95v-18.28q0-2.89-1.16-4.2-1.16-1.32-3.4-1.32-1.51 0-2.82.74-1.3.74-2.42 2.03zm59.08-25.62-1.57 2.49q-.28.45-.58.63-.31.18-.79.18-.5 0-1.08-.28-.57-.28-1.33-.63-.75-.35-1.72-.63-.96-.28-2.28-.28-2.04 0-3.21.87-1.16.87-1.16 2.27 0 .92.6 1.55.61.63 1.6 1.11t2.25.85q1.26.38 2.57.83 1.3.45 2.56 1.02 1.26.58 2.25 1.46 1 .88 1.6 2.11t.6 2.97q0 2.07-.74 3.82t-2.2 3.03q-1.46 1.27-3.6 1.98-2.14.72-4.94.72-1.48 0-2.9-.27-1.41-.26-2.71-.74-1.31-.48-2.41-1.12-1.11-.64-1.95-1.4l1.6-2.63q.31-.48.73-.73t1.06-.25 1.22.36q.57.37 1.33.79.75.42 1.78.78 1.02.36 2.59.36 1.23 0 2.11-.29t1.46-.77q.57-.48.84-1.11.26-.63.26-1.3 0-1.01-.6-1.65t-1.6-1.12q-.99-.48-2.26-.85-1.28-.38-2.61-.83t-2.6-1.05q-1.28-.6-2.27-1.53-.99-.92-1.6-2.26-.6-1.35-.6-3.25 0-1.77.7-3.36.7-1.6 2.06-2.79t3.39-1.9q2.03-.72 4.69-.72 2.97 0 5.4.98 2.44.98 4.06 2.58"/></svg>