<svg xmlns="http://www.w3.org/2000/svg" width="400" height="400" viewBox="0 0 400 400"><rect width="100%" height="100%" fill="#4682B4"/><path fill="#FFFFFF" d="M157.61 149.39h18.91v101.22h-18.91v-44.24h-47.53v44.24h-18.9V149.39h18.9v43.54h47.53zm137 0h14.21v101.22h-16.59v-65.38q0-3.92.42-8.47l-30.59 57.47q-2.17 4.13-6.65 4.13h-2.66q-4.48 0-6.66-4.13l-30.94-57.68q.21 2.31.35 4.55t.14 4.13v65.38h-16.59V149.39h14.22q1.25 0 2.16.07t1.65.35q.73.28 1.33.91.59.63 1.16 1.68l30.31 56.21q1.19 2.24 2.2 4.62t2 4.9q.98-2.59 2.03-5.01 1.05-2.41 2.23-4.65l29.89-56.07q.57-1.05 1.2-1.68t1.36-.91q.74-.28 1.65-.35t2.17-.07"/></svg>