<svg xmlns="http://www.w3.org/2000/svg" width="1920" height="1080" viewBox="0 0 1920 1080"><rect width="100%" height="100%" fill="#2E8B57"/><path fill="#FFFFFF" d="M398.715 530.125h8.49q3.83 0 6.69-.96 2.85-.96 4.69-2.65 1.85-1.69 2.76-4.01.91-2.33.91-5.11 0-5.55-3.67-8.53-3.66-2.98-11.18-2.98h-8.69zm25.15 11.31 18.28 26.97h-12.27q-3.48 0-5.05-2.73l-15.35-23.38q-.86-1.31-1.9-1.87-1.03-.55-3.05-.55h-5.81v28.53h-13.58v-73.02h22.27q7.42 0 12.75 1.54t8.74 4.31q3.4 2.78 5.02 6.65 1.62 3.86 1.62 8.5 0 3.69-1.09 6.97-1.08 3.29-3.13 5.96-2.05 2.68-5.05 4.7t-6.84 3.18q1.31.76 2.42 1.79 1.11 1.04 2.02 2.45m34.09-4.9h23.53q0-2.42-.68-4.57-.68-2.14-2.05-3.76-1.36-1.61-3.45-2.55-2.1-.93-4.88-.93-5.4 0-8.51 3.08-3.1 3.08-3.96 8.73m31.81 7.53h-32.06q.3 3.99 1.41 6.89 1.11 2.91 2.93 4.8t4.32 2.83q2.5.93 5.53.93t5.22-.71q2.2-.7 3.84-1.56t2.88-1.57q1.24-.7 2.4-.7 1.56 0 2.32 1.16l3.59 4.54q-2.07 2.43-4.65 4.07-2.57 1.64-5.38 2.62-2.8.99-5.7 1.39-2.91.41-5.63.41-5.41 0-10.05-1.8-4.65-1.79-8.08-5.3-3.44-3.51-5.41-8.68-1.97-5.18-1.97-12 0-5.3 1.72-9.97t4.92-8.13q3.21-3.46 7.83-5.48t10.43-2.02q4.9 0 9.04 1.56 4.14 1.57 7.12 4.57 2.98 3.01 4.67 7.38t1.69 9.97q0 2.83-.6 3.81-.61.99-2.33.99m23.08-25.2.86 4.09q1.57-1.57 3.31-2.9 1.74-1.34 3.68-2.28 1.95-.93 4.17-1.46t4.85-.53q4.24 0 7.52 1.44 3.29 1.44 5.48 4.04 2.2 2.6 3.34 6.21 1.13 3.61 1.13 7.95v32.98h-12.47v-32.98q0-4.74-2.17-7.34-2.17-2.61-6.62-2.61-3.23 0-6.06 1.47-2.83 1.46-5.35 3.99v37.47h-12.47v-51.81h7.62q2.42 0 3.18 2.27m56.01 17.67h23.53q0-2.42-.68-4.57-.68-2.14-2.05-3.76-1.36-1.61-3.46-2.55-2.09-.93-4.87-.93-5.4 0-8.51 3.08-3.1 3.08-3.96 8.73m31.81 7.53h-32.07q.31 3.99 1.42 6.89 1.11 2.91 2.93 4.8t4.31 2.83q2.5.93 5.53.93t5.23-.71q2.2-.7 3.84-1.56t2.88-1.57q1.24-.7 2.4-.7 1.56 0 2.32 1.16l3.59 4.54q-2.08 2.43-4.65 4.07-2.58 1.64-5.38 2.62-2.8.99-5.71 1.39-2.9.41-5.63.41-5.4 0-10.05-1.8-4.64-1.79-8.08-5.3-3.43-3.51-5.4-8.68-1.97-5.18-1.97-12 0-5.3 1.72-9.97t4.92-8.13q3.21-3.46 7.83-5.48t10.43-2.02q4.9 0 9.04 1.56 4.14 1.57 7.12 4.57 2.98 3.01 4.67 7.38t1.69 9.97q0 2.83-.61 3.81-.6.99-2.32.99m76.76-27.47h9.5l-16.47 51.81h-10q-1.71 0-2.37-2.22l-9.29-29.95q-.46-1.51-.84-3-.37-1.49-.63-3.01-.3 1.52-.68 3.06t-.83 3.05l-9.44 29.85q-.61 2.22-2.68 2.22h-9.6l-16.41-51.81h9.95q1.36 0 2.32.65.96.66 1.27 1.67l7.42 27.67q.55 2.28.98 4.45t.74 4.34q.55-2.17 1.18-4.34t1.34-4.45l8.59-27.77q.3-1.01 1.18-1.67.89-.65 2.15-.65h5.5q1.32 0 2.25.65.93.66 1.24 1.67l8.33 27.77q.66 2.28 1.24 4.47.58 2.2 1.13 4.37.66-4.29 1.87-8.84l7.63-27.67q.35-1.01 1.26-1.67.91-.65 2.17-.65m43.94 38.43v-8.74q-5.41.25-9.09.94-3.69.68-5.91 1.74t-3.18 2.47q-.96 1.42-.96 3.08 0 3.28 1.94 4.7 1.95 1.41 5.08 1.41 3.83 0 6.64-1.39 2.8-1.38 5.48-4.21m-26.36-27.22-2.23-3.99q8.94-8.18 21.52-8.18 4.54 0 8.13 1.49 3.58 1.49 6.06 4.14 2.47 2.65 3.76 6.34 1.29 3.68 1.29 8.08v32.72h-5.66q-1.77 0-2.73-.53t-1.51-2.15l-1.11-3.73q-1.97 1.76-3.84 3.1t-3.89 2.25-4.32 1.39q-2.29.48-5.07.48-3.28 0-6.06-.89-2.78-.88-4.8-2.65-2.02-1.76-3.13-4.39t-1.11-6.11q0-1.97.66-3.91.65-1.95 2.14-3.72 1.49-1.76 3.87-3.33 2.37-1.57 5.83-2.73t8.05-1.89q4.6-.73 10.51-.88v-3.03q0-5.21-2.23-7.71-2.22-2.5-6.41-2.5-3.03 0-5.02.71-2 .71-3.51 1.59-1.52.89-2.76 1.59-1.23.71-2.75.71-1.31 0-2.22-.68t-1.46-1.59m62.72 3.94v23.23q2.12 2.57 4.62 3.63t5.27 1.06q2.88 0 5.18-1.03 2.3-1.04 3.91-3.23 1.62-2.2 2.48-5.61t.86-8.16q0-8.53-2.83-12.34-2.83-3.82-8.13-3.82-3.59 0-6.26 1.65-2.68 1.64-5.1 4.62m0-38.38v29.59q3.13-3.28 6.94-5.23 3.81-1.94 8.71-1.94 4.5 0 8.11 1.77 3.61 1.76 6.16 5.07t3.91 8.01q1.37 4.69 1.37 10.55 0 6.31-1.57 11.46t-4.47 8.82q-2.9 3.66-6.99 5.68t-9.09 2.02q-2.43 0-4.4-.48t-3.63-1.34q-1.67-.86-3.06-2.1-1.39-1.23-2.65-2.75l-.56 3.49q-.3 1.31-1.03 1.86-.73.56-2 .56h-8.23v-75.04zm44.99 0h12.48v75.04h-12.48zm34.8 43.17h23.53q0-2.42-.68-4.57-.68-2.14-2.05-3.76-1.36-1.61-3.46-2.55-2.09-.93-4.87-.93-5.4 0-8.51 3.08-3.1 3.08-3.96 8.73m31.81 7.53h-32.07q.31 3.99 1.42 6.89 1.11 2.91 2.93 4.8t4.31 2.83q2.5.93 5.53.93t5.23-.71q2.2-.7 3.84-1.56t2.88-1.57q1.24-.7 2.4-.7 1.56 0 2.32 1.16l3.59 4.54q-2.08 2.43-4.65 4.07-2.58 1.64-5.38 2.62-2.8.99-5.71 1.39-2.9.41-5.63.41-5.4 0-10.05-1.8-4.64-1.79-8.08-5.3-3.43-3.51-5.4-8.68-1.97-5.18-1.97-12 0-5.3 1.72-9.97t4.92-8.13q3.21-3.46 7.83-5.48t10.43-2.02q4.9 0 9.04 1.56 4.14 1.57 7.12 4.57 2.98 3.01 4.67 7.38t1.69 9.97q0 2.83-.61 3.81-.6.99-2.32.99m84.84-37.88h-32.42v20.25h25.55v10.46h-25.55v20.65h32.42v10.86h-46.05v-73.02h46.05zm20.86 12.68.86 4.09q1.56-1.57 3.3-2.9 1.75-1.34 3.69-2.28 1.95-.93 4.17-1.46t4.85-.53q4.24 0 7.52 1.44t5.48 4.04 3.33 6.21q1.14 3.61 1.14 7.95v32.98h-12.48v-32.98q0-4.74-2.17-7.34-2.17-2.61-6.61-2.61-3.23 0-6.06 1.47-2.83 1.46-5.36 3.99v37.47h-12.47v-51.81h7.63q2.42 0 3.18 2.27m56 17.67h23.54q0-2.42-.69-4.57-.68-2.14-2.04-3.76-1.36-1.61-3.46-2.55-2.1-.93-4.87-.93-5.41 0-8.51 3.08-3.11 3.08-3.97 8.73m31.82 7.53h-32.07q.3 3.99 1.41 6.89 1.12 2.91 2.93 4.8 1.82 1.89 4.32 2.83 2.5.93 5.53.93t5.23-.71q2.19-.7 3.84-1.56 1.64-.86 2.87-1.57 1.24-.7 2.4-.7 1.57 0 2.33 1.16l3.58 4.54q-2.07 2.43-4.64 4.07-2.58 1.64-5.38 2.62-2.81.99-5.71 1.39-2.9.41-5.63.41-5.4 0-10.05-1.8-4.65-1.79-8.08-5.3t-5.4-8.68q-1.97-5.18-1.97-12 0-5.3 1.71-9.97 1.72-4.67 4.93-8.13 3.2-3.46 7.83-5.48 4.62-2.02 10.42-2.02 4.9 0 9.04 1.56 4.14 1.57 7.12 4.57 2.98 3.01 4.67 7.38 1.7 4.37 1.7 9.97 0 2.83-.61 3.81-.61.99-2.32.99m23.28-24.34.76 5.86q2.42-4.65 5.75-7.3 3.34-2.65 7.88-2.65 3.59 0 5.76 1.56l-.81 9.35q-.25.9-.73 1.28t-1.29.38q-.76 0-2.25-.25t-2.9-.25q-2.07 0-3.69.6-1.61.61-2.9 1.75-1.29 1.13-2.27 2.75-.99 1.61-1.85 3.68v31.92h-12.47v-51.81h7.32q1.92 0 2.68.68t1.01 2.45m45.6 21.51q2.32 0 4.04-.63t2.85-1.74q1.14-1.11 1.72-2.68.58-1.56.58-3.43 0-3.84-2.3-6.09-2.29-2.25-6.89-2.25t-6.89 2.25q-2.3 2.25-2.3 6.09 0 1.81.58 3.38t1.72 2.7q1.13 1.14 2.87 1.77 1.75.63 4.02.63m14.09 29.49q0-1.51-.91-2.47t-2.47-1.49q-1.57-.53-3.67-.78-2.09-.26-4.44-.38-2.35-.13-4.85-.23t-4.87-.4q-2.07 1.16-3.36 2.72-1.29 1.57-1.29 3.64 0 1.36.68 2.55.69 1.19 2.18 2.04 1.49.86 3.86 1.34t5.81.48q3.48 0 6.01-.53 2.52-.53 4.16-1.46 1.64-.94 2.4-2.22.76-1.29.76-2.81m-2.48-52.37h14.9v4.65q0 2.22-2.67 2.73l-4.65.86q1.06 2.67 1.06 5.85 0 3.84-1.54 6.95-1.54 3.1-4.27 5.27-2.72 2.18-6.44 3.36-3.71 1.19-8 1.19-1.52 0-2.93-.15t-2.78-.41q-2.42 1.47-2.42 3.29 0 1.56 1.44 2.29 1.44.74 3.81 1.04t5.4.38q3.03.07 6.22.33 3.18.25 6.21.88t5.4 2q2.37 1.36 3.81 3.71t1.44 6.03q0 3.44-1.69 6.67t-4.9 5.76q-3.2 2.52-7.88 4.06-4.67 1.54-10.63 1.54-5.85 0-10.2-1.14-4.34-1.13-7.22-3.03-2.88-1.89-4.29-4.36-1.41-2.48-1.41-5.16 0-3.63 2.19-6.08 2.2-2.45 6.04-3.91-2.07-1.06-3.29-2.83-1.21-1.77-1.21-4.65 0-1.16.43-2.4.43-1.23 1.26-2.45.84-1.21 2.1-2.29 1.26-1.09 2.98-1.95-3.94-2.12-6.19-5.65-2.24-3.54-2.24-8.29 0-3.83 1.54-6.94t4.29-5.3q2.75-2.2 6.51-3.36 3.77-1.16 8.21-1.16 3.33 0 6.26.68t5.35 1.99m59.85-1.76h10l-28.23 66.05q-.56 1.31-1.44 2-.89.68-2.7.68h-9.3l9.7-20.81-20.96-47.92h10.96q1.47 0 2.3.7.83.71 1.24 1.62l11 26.87q.56 1.36.94 2.72.38 1.37.73 2.78.46-1.41.91-2.8t1.01-2.75l10.4-26.82q.41-1.01 1.34-1.67.94-.65 2.1-.65m88.78-10.41h-32.42v21.62h27.37v10.86h-27.37v29.74h-13.64v-73.02h46.06zm41.31 10.41h12.47v51.81h-7.63q-2.47 0-3.13-2.27l-.86-4.14q-3.18 3.23-7.02 5.22-3.83 2-9.04 2-4.24 0-7.49-1.44-3.26-1.44-5.48-4.07-2.23-2.62-3.36-6.23-1.14-3.61-1.14-7.96v-32.92h12.48v32.92q0 4.75 2.19 7.35 2.2 2.6 6.59 2.6 3.23 0 6.06-1.44t5.36-3.96zm42.06 52.62q-6.77 0-10.38-3.81-3.61-3.82-3.61-10.53v-28.94h-5.3q-1.01 0-1.72-.66-.7-.65-.7-1.97v-4.95l8.33-1.36 2.63-14.14q.25-1.01.95-1.56.71-.56 1.82-.56h6.47v16.31h13.83v8.89h-13.83v28.08q0 2.42 1.18 3.78 1.19 1.37 3.26 1.37 1.16 0 1.94-.28.79-.28 1.37-.58t1.03-.58q.46-.28.91-.28.56 0 .91.28.36.28.76.83l3.74 6.06q-2.73 2.27-6.27 3.44-3.53 1.16-7.32 1.16m52.47-52.62h12.47v51.81h-7.62q-2.48 0-3.13-2.27l-.86-4.14q-3.18 3.23-7.02 5.22-3.84 2-9.04 2-4.24 0-7.5-1.44t-5.48-4.07q-2.22-2.62-3.36-6.23-1.13-3.61-1.13-7.96v-32.92h12.47v32.92q0 4.75 2.2 7.35 2.19 2.6 6.59 2.6 3.23 0 6.06-1.44t5.35-3.96zm35.81 3.13.75 5.86q2.43-4.65 5.76-7.3t7.88-2.65q3.58 0 5.76 1.56l-.81 9.35q-.26.9-.74 1.28-.47.38-1.28.38-.76 0-2.25-.25t-2.9-.25q-2.07 0-3.69.6-1.62.61-2.9 1.75-1.29 1.13-2.28 2.75-.98 1.61-1.84 3.68v31.92h-12.47v-51.81h7.32q1.92 0 2.68.68.75.68 1.01 2.45m36.51 16.81h23.53q0-2.42-.68-4.57-.68-2.14-2.05-3.76-1.36-1.61-3.46-2.55-2.09-.93-4.87-.93-5.4 0-8.51 3.08-3.1 3.08-3.96 8.73m31.81 7.53h-32.07q.31 3.99 1.42 6.89 1.11 2.91 2.93 4.8t4.32 2.83q2.5.93 5.53.93t5.22-.71q2.2-.7 3.84-1.56t2.88-1.57q1.24-.7 2.4-.7 1.56 0 2.32 1.16l3.59 4.54q-2.07 2.43-4.65 4.07t-5.38 2.62q-2.8.99-5.71 1.39-2.9.41-5.63.41-5.4 0-10.05-1.8-4.64-1.79-8.08-5.3-3.43-3.51-5.4-8.68-1.97-5.18-1.97-12 0-5.3 1.72-9.97t4.92-8.13q3.21-3.46 7.83-5.48t10.43-2.02q4.9 0 9.04 1.56 4.14 1.57 7.12 4.57 2.98 3.01 4.67 7.38t1.69 9.97q0 2.83-.6 3.81-.61.99-2.33.99"/></svg>