<svg xmlns="http://www.w3.org/2000/svg" width="400" height="400" viewBox="0 0 400 400"><rect width="100%" height="100%" fill="#2E8B57"/><path fill="#FFFFFF" d="M206.395 199.995q0 13.04-4.31 24.15-4.3 11.11-12.17 19.23-7.88 8.12-18.95 12.67t-24.6 4.55q-13.44 0-24.52-4.55-11.06-4.55-18.98-12.67-7.91-8.12-12.26-19.23-4.34-11.11-4.34-24.15 0-13.03 4.34-24.15 4.35-11.11 12.26-19.22 7.92-8.12 18.98-12.67 11.08-4.55 24.52-4.55 9.02 0 16.98 2.09 7.95 2.09 14.59 5.9 6.65 3.81 11.93 9.27 5.29 5.45 8.98 12.17 3.69 6.73 5.62 14.6t1.93 16.56m-22.55 0q0-9.75-2.63-17.5-2.62-7.75-7.46-13.16-4.84-5.42-11.77-8.29-6.92-2.87-15.62-2.87-8.69 0-15.62 2.87t-11.81 8.29q-4.88 5.41-7.5 13.16t-2.62 17.5q0 9.76 2.62 17.51t7.5 13.12 11.81 8.24 15.62 2.87q8.7 0 15.62-2.87 6.93-2.87 11.77-8.24t7.46-13.12q2.63-7.75 2.63-17.51m64.04 42.07h22.3q6.15 0 10.34-1.48 4.18-1.47 6.68-3.93t3.61-5.74q1.1-3.28 1.1-6.97 0-3.86-1.23-6.93-1.23-3.08-3.85-5.25-2.63-2.17-6.77-3.32t-9.96-1.15h-22.22zm18.78-84.3h-18.78v34.28h17.55q11.31 0 17.09-4.1 5.79-4.1 5.79-13.04 0-9.26-5.25-13.2t-16.4-3.94m-40.84-17.05h40.84q11.64 0 19.92 2.21 8.29 2.22 13.57 6.32 5.29 4.1 7.75 9.92t2.46 13.12q0 4.18-1.23 7.99-1.23 3.82-3.81 7.14t-6.56 6.02q-3.98 2.71-9.47 4.6 24.44 5.49 24.44 26.4 0 7.54-2.87 13.94t-8.37 11.03q-5.49 4.63-13.53 7.26-8.04 2.62-18.37 2.62h-44.77z"/></svg>