<svg xmlns="http://www.w3.org/2000/svg" width="1080" height="720" viewBox="0 0 1080 720"><rect width="100%" height="100%" fill="#9370DB"/><path fill="#FFFFFF" d="M228.315 334.345v52.06h-9.72v-52.06zm17.93 16.74.61 2.92q1.11-1.12 2.36-2.07 1.24-.95 2.62-1.62 1.39-.67 2.97-1.04 1.59-.38 3.46-.38 3.02 0 5.36 1.02 2.34 1.03 3.91 2.88 1.57 1.86 2.38 4.43.81 2.58.81 5.67v23.51h-8.9v-23.51q0-3.38-1.54-5.24-1.55-1.85-4.72-1.85-2.3 0-4.32 1.04-2.02 1.05-3.82 2.85v26.71h-8.89v-36.94h5.44q1.73 0 2.27 1.62m40.6 0 .62 2.92q1.11-1.12 2.35-2.07 1.25-.95 2.63-1.62 1.39-.67 2.97-1.04 1.59-.38 3.46-.38 3.02 0 5.36 1.02 2.34 1.03 3.91 2.88 1.56 1.86 2.37 4.43.81 2.58.81 5.67v23.51h-8.89v-23.51q0-3.38-1.55-5.24-1.54-1.85-4.71-1.85-2.31 0-4.32 1.04-2.02 1.05-3.82 2.85v26.71h-8.89v-36.94h5.44q1.72 0 2.26 1.62m49.25-2.19q4.11 0 7.47 1.33 3.37 1.33 5.76 3.78 2.4 2.45 3.69 5.98 1.3 3.52 1.3 7.88 0 4.39-1.3 7.92-1.29 3.53-3.69 6.01-2.39 2.49-5.76 3.82-3.36 1.33-7.47 1.33-4.14 0-7.52-1.33-3.39-1.33-5.78-3.82-2.39-2.48-3.71-6.01-1.31-3.53-1.31-7.92 0-4.36 1.31-7.88 1.32-3.53 3.71-5.98t5.78-3.78q3.38-1.33 7.52-1.33m0 31.21q4.61 0 6.82-3.1 2.22-3.09 2.22-9.07 0-5.97-2.22-9.11-2.21-3.13-6.82-3.13-4.68 0-6.93 3.15t-2.25 9.09 2.25 9.06q2.25 3.11 6.93 3.11m51.3-30.64h7.02l-14.65 36.94h-8.06l-14.66-36.94h7.35q1.01 0 1.67.47.67.47.88 1.19l7.13 19.73q.58 1.73 1.01 3.38.43 1.66.76 3.31.36-1.65.79-3.31.43-1.65 1.04-3.38l7.27-19.73q.26-.72.9-1.19.65-.47 1.55-.47m31.25 27.4v-6.23q-3.85.18-6.48.67-2.63.48-4.21 1.24-1.59.76-2.27 1.76-.68 1.01-.68 2.2 0 2.34 1.38 3.35 1.39 1.01 3.62 1.01 2.74 0 4.73-.99 2-.99 3.91-3.01m-18.79-19.4-1.59-2.85q6.38-5.83 15.34-5.83 3.24 0 5.8 1.06 2.55 1.06 4.32 2.95 1.76 1.89 2.68 4.52t.92 5.76v23.33h-4.04q-1.26 0-1.94-.38t-1.08-1.53l-.79-2.66q-1.41 1.26-2.74 2.21-1.33.96-2.77 1.6-1.44.65-3.08.99-1.64.35-3.62.35-2.34 0-4.32-.63t-3.42-1.89-2.23-3.14q-.79-1.87-.79-4.35 0-1.41.47-2.79.47-1.39 1.53-2.65t2.75-2.37q1.69-1.12 4.16-1.95t5.74-1.35q3.28-.52 7.49-.63v-2.16q0-3.71-1.58-5.49-1.59-1.78-4.58-1.78-2.16 0-3.58.5-1.42.51-2.5 1.14t-1.96 1.13q-.88.51-1.96.51-.94 0-1.59-.49t-1.04-1.13m48.13 29.52q-4.82 0-7.4-2.72-2.57-2.72-2.57-7.51v-20.63h-3.78q-.72 0-1.23-.46-.5-.47-.5-1.41v-3.53l5.94-.97 1.87-10.08q.18-.72.69-1.11.5-.4 1.29-.4h4.61v11.63h9.86v6.33h-9.86v20.02q0 1.73.85 2.7.84.97 2.32.97.83 0 1.38-.2.56-.19.98-.41.41-.22.73-.41.33-.2.65-.2.4 0 .65.2.25.19.54.59l2.66 4.32q-1.94 1.62-4.46 2.45t-5.22.83m14.76-37.52h8.93v36.94h-8.93zm10.15-10.76q0 1.15-.47 2.16-.46 1.01-1.24 1.76-.77.76-1.82 1.21-1.04.45-2.23.45-1.15 0-2.18-.45-1.02-.45-1.78-1.21-.75-.75-1.2-1.76t-.45-2.16q0-1.19.45-2.23.45-1.05 1.2-1.8.76-.76 1.78-1.21 1.03-.45 2.18-.45 1.19 0 2.23.45 1.05.45 1.82 1.21.78.75 1.24 1.8.47 1.04.47 2.23m34.13 10.76h7.02l-14.65 36.94h-8.07l-14.65-36.94h7.35q1 0 1.67.47t.88 1.19l7.13 19.73q.58 1.73 1.01 3.38.43 1.66.75 3.31.36-1.65.8-3.31.43-1.65 1.04-3.38l7.27-19.73q.25-.72.9-1.19t1.55-.47m18.76 14.22h16.77q0-1.72-.48-3.25-.49-1.53-1.46-2.69-.97-1.15-2.47-1.81-1.49-.67-3.47-.67-3.85 0-6.07 2.2-2.21 2.19-2.82 6.22m22.68 5.37h-22.86q.21 2.84 1 4.91.8 2.07 2.09 3.42 1.3 1.35 3.08 2.02 1.78.66 3.94.66t3.73-.5q1.56-.5 2.73-1.12 1.17-.61 2.06-1.11.88-.51 1.71-.51 1.11 0 1.65.83l2.56 3.24q-1.48 1.73-3.31 2.9-1.84 1.17-3.84 1.87t-4.07.99-4.01.29q-3.85 0-7.16-1.28-3.32-1.28-5.76-3.78-2.45-2.5-3.86-6.19-1.4-3.69-1.4-8.55 0-3.78 1.22-7.11 1.23-3.33 3.51-5.8 2.29-2.46 5.58-3.9 3.3-1.44 7.44-1.44 3.49 0 6.44 1.11 2.95 1.12 5.08 3.26 2.12 2.14 3.33 5.26 1.2 3.11 1.2 7.11 0 2.01-.43 2.72-.43.7-1.65.7m64.44-34.71h7.81l-21.03 52.06h-8.74l-21.03-52.06h7.78q1.26 0 2.05.62.79.61 1.19 1.58l12.27 31.75q.62 1.55 1.17 3.4.56 1.86 1.07 3.87.43-2.01.93-3.87.51-1.85 1.12-3.4l12.2-31.75q.29-.83 1.14-1.51.84-.69 2.07-.69m18.82 29.34h16.78q0-1.72-.49-3.25-.48-1.53-1.45-2.69-.98-1.15-2.47-1.81-1.49-.67-3.47-.67-3.86 0-6.07 2.2-2.21 2.19-2.83 6.22m22.68 5.37h-22.86q.22 2.84 1.01 4.91t2.09 3.42 3.08 2.02q1.78.66 3.94.66t3.73-.5q1.56-.5 2.73-1.12 1.17-.61 2.05-1.11.89-.51 1.71-.51 1.12 0 1.66.83l2.56 3.24q-1.48 1.73-3.32 2.9-1.83 1.17-3.83 1.87t-4.07.99-4.01.29q-3.85 0-7.17-1.28-3.31-1.28-5.76-3.78-2.44-2.5-3.85-6.19-1.4-3.69-1.4-8.55 0-3.78 1.22-7.11 1.23-3.33 3.51-5.8 2.29-2.46 5.58-3.9 3.3-1.44 7.44-1.44 3.49 0 6.44 1.11 2.95 1.12 5.08 3.26 2.12 2.14 3.33 5.26 1.2 3.11 1.2 7.11 0 2.01-.43 2.72-.43.7-1.66.7m16.46-17.97.61 2.92q1.11-1.12 2.36-2.07 1.24-.95 2.62-1.62 1.39-.67 2.97-1.04 1.59-.38 3.46-.38 3.02 0 5.36 1.02 2.34 1.03 3.91 2.88 1.57 1.86 2.38 4.43.81 2.58.81 5.67v23.51h-8.9v-23.51q0-3.38-1.54-5.24-1.55-1.85-4.72-1.85-2.3 0-4.32 1.04-2.02 1.05-3.82 2.85v26.71h-8.89v-36.94h5.44q1.73 0 2.27 1.62m45.21 35.9q-4.82 0-7.4-2.72-2.57-2.72-2.57-7.51v-20.63h-3.78q-.72 0-1.22-.46-.51-.47-.51-1.41v-3.53l5.94-.97 1.87-10.08q.18-.72.69-1.11.5-.4 1.29-.4h4.61v11.63h9.87v6.33h-9.87v20.02q0 1.73.85 2.7.84.97 2.32.97.83 0 1.39-.2.55-.19.97-.41.41-.22.74-.41.32-.2.64-.2.4 0 .65.2.25.19.54.59l2.67 4.32q-1.95 1.62-4.47 2.45t-5.22.83m37.41-37.52h8.89v36.94h-5.44q-1.76 0-2.23-1.62l-.61-2.95q-2.27 2.3-5.01 3.72-2.73 1.43-6.44 1.43-3.02 0-5.35-1.03-2.32-1.03-3.9-2.9-1.59-1.87-2.4-4.44-.81-2.58-.81-5.67v-23.48h8.9v23.48q0 3.38 1.56 5.23 1.57 1.86 4.7 1.86 2.3 0 4.32-1.03 2.02-1.02 3.82-2.82zm25.52 2.24.54 4.17q1.73-3.31 4.1-5.2 2.38-1.89 5.62-1.89 2.56 0 4.1 1.12l-.57 6.66q-.18.64-.52.91-.35.27-.92.27-.54 0-1.6-.18-1.07-.18-2.07-.18-1.48 0-2.63.44-1.15.43-2.07 1.24t-1.62 1.96-1.32 2.63v22.75h-8.89v-36.94h5.22q1.37 0 1.91.49t.72 1.75m26.03 11.98h16.77q0-1.72-.48-3.25-.49-1.53-1.46-2.69-.97-1.15-2.47-1.81-1.49-.67-3.47-.67-3.85 0-6.07 2.2-2.21 2.19-2.82 6.22m22.68 5.37h-22.86q.21 2.84 1.01 4.91.79 2.07 2.08 3.42 1.3 1.35 3.08 2.02 1.78.66 3.94.66t3.73-.5 2.74-1.12q1.17-.61 2.05-1.11.88-.51 1.71-.51 1.11 0 1.65.83l2.56 3.24q-1.48 1.73-3.31 2.9-1.84 1.17-3.84 1.87-1.99.7-4.06.99t-4.02.29q-3.85 0-7.16-1.28t-5.76-3.78-3.85-6.19q-1.41-3.69-1.41-8.55 0-3.78 1.23-7.11 1.22-3.33 3.51-5.8 2.28-2.46 5.58-3.9 3.29-1.44 7.43-1.44 3.49 0 6.44 1.11 2.96 1.12 5.08 3.26t3.33 5.26q1.21 3.11 1.21 7.11 0 2.01-.44 2.72-.43.7-1.65.7m33.3-15.59-2.02 3.2q-.36.58-.75.81-.4.24-1.01.24-.65 0-1.39-.36t-1.71-.81-2.21-.81-2.94-.36q-2.62 0-4.12 1.11-1.49 1.12-1.49 2.92 0 1.19.77 2 .78.81 2.05 1.42 1.28.61 2.9 1.1 1.62.48 3.3 1.06 1.67.58 3.29 1.31 1.62.74 2.9 1.88 1.28 1.13 2.05 2.71.77 1.59.77 3.82 0 2.66-.95 4.91t-2.83 3.89q-1.87 1.64-4.62 2.56-2.76.92-6.36.92-1.9 0-3.72-.35-1.82-.34-3.49-.95-1.68-.61-3.1-1.44t-2.5-1.8l2.05-3.38q.4-.62.94-.94t1.36-.32q.83 0 1.57.46.74.47 1.71 1.01t2.29 1.01q1.31.47 3.33.47 1.58 0 2.71-.38 1.14-.38 1.88-.99.73-.61 1.08-1.42.34-.81.34-1.68 0-1.29-.78-2.12-.77-.83-2.05-1.44t-2.91-1.1q-1.64-.48-3.35-1.06t-3.35-1.35-2.92-1.96q-1.27-1.19-2.05-2.92-.77-1.73-.77-4.17 0-2.27.9-4.32.9-2.06 2.64-3.59 1.75-1.53 4.36-2.44 2.61-.92 6.03-.92 3.82 0 6.95 1.26t5.22 3.31"/></svg>