<svg xmlns="http://www.w3.org/2000/svg" width="1080" height="720" viewBox="0 0 1080 720"><rect width="100%" height="100%" fill="#4682B4"/><path fill="#FFFFFF" d="M226.115 359.375h4.62q2.09 0 3.64-.53 1.56-.52 2.56-1.44t1.5-2.19q.49-1.26.49-2.77 0-3.03-1.99-4.65-1.99-1.63-6.09-1.63h-4.73zm13.69 6.15 9.96 14.69h-6.68q-1.9 0-2.75-1.49l-8.36-12.73q-.47-.71-1.04-1.01-.56-.31-1.66-.31h-3.16v15.54h-7.4v-39.77h12.13q4.04 0 6.94.84t4.76 2.35q1.86 1.52 2.74 3.62t.88 4.64q0 2-.6 3.79-.59 1.79-1.7 3.24-1.11 1.46-2.75 2.56t-3.73 1.73q.72.42 1.32.98.61.56 1.1 1.33m18.57-2.66h12.81q0-1.32-.37-2.49t-1.11-2.05q-.75-.88-1.89-1.39t-2.65-.51q-2.94 0-4.64 1.68-1.69 1.68-2.15 4.76m17.32 4.09h-17.46q.16 2.18.77 3.76.6 1.58 1.59 2.61t2.35 1.54q1.37.51 3.02.51t2.84-.38q1.2-.39 2.09-.86.9-.46 1.57-.85t1.31-.39q.85 0 1.26.64l1.95 2.47q-1.12 1.32-2.53 2.22-1.4.89-2.93 1.43-1.52.53-3.1.75t-3.07.22q-2.94 0-5.47-.97-2.53-.98-4.4-2.89t-2.94-4.73q-1.08-2.82-1.08-6.53 0-2.89.94-5.43.93-2.55 2.68-4.43 1.75-1.89 4.26-2.98 2.52-1.11 5.68-1.11 2.67 0 4.92.86 2.26.85 3.88 2.49 1.62 1.63 2.54 4.01.93 2.38.93 5.43 0 1.54-.33 2.08-.33.53-1.27.53m25.44-11.9-1.54 2.45q-.28.44-.58.61-.3.18-.77.18-.49 0-1.06-.27-.56-.28-1.3-.62-.75-.35-1.7-.62-.94-.28-2.24-.28-2 0-3.15.86-1.14.85-1.14 2.22 0 .91.59 1.53.6.62 1.57 1.09.98.46 2.22.84 1.23.37 2.51.81t2.52 1q1.24.57 2.21 1.43.98.87 1.57 2.08t.59 2.91q0 2.04-.73 3.76t-2.16 2.97-3.53 1.95-4.85.7q-1.46 0-2.85-.26t-2.67-.73-2.36-1.1q-1.09-.63-1.91-1.37l1.56-2.59q.31-.47.72-.72.41-.24 1.04-.24.64 0 1.2.36.56.35 1.31.76.74.42 1.74.78 1.01.35 2.55.35 1.21 0 2.07-.29.87-.29 1.43-.75.57-.47.83-1.09t.26-1.28q0-.99-.59-1.62t-1.57-1.1-2.23-.84-2.56-.81q-1.3-.44-2.55-1.03t-2.23-1.5-1.57-2.23-.59-3.19q0-1.73.69-3.3.69-1.56 2.02-2.73t3.33-1.87q1.99-.71 4.6-.71 2.92 0 5.31.97 2.39.96 3.99 2.53m5.64-3.05h6.82v28.21h-6.82zm7.75-8.23q0 .88-.36 1.65-.35.77-.95 1.35-.59.58-1.38.92-.8.35-1.71.35-.88 0-1.66-.35-.79-.34-1.36-.92-.58-.58-.93-1.35-.34-.77-.34-1.65 0-.9.34-1.7.35-.8.93-1.38.57-.57 1.36-.92.78-.34 1.66-.34.91 0 1.71.34.79.35 1.38.92.6.58.95 1.38.36.8.36 1.7m23.71 28.08v-12.65q-1.16-1.4-2.52-1.98t-2.93-.58q-1.54 0-2.78.58-1.23.58-2.11 1.75t-1.35 2.97-.47 4.24q0 2.48.4 4.2t1.14 2.8q.74 1.09 1.82 1.57 1.07.48 2.39.48 2.12 0 3.6-.88 1.49-.88 2.81-2.5m0-32.51h6.79v40.87h-4.15q-1.35 0-1.71-1.24l-.58-2.72q-1.7 1.95-3.92 3.16-2.21 1.21-5.15 1.21-2.31 0-4.24-.96-1.92-.96-3.31-2.79t-2.15-4.53q-.75-2.69-.75-6.16 0-3.13.85-5.83.85-2.69 2.45-4.67 1.59-1.98 3.82-3.09 2.23-1.12 5.01-1.12 2.36 0 4.04.74 1.68.75 3 2.01zm18.86 23.52h12.82q0-1.32-.38-2.49-.37-1.17-1.11-2.05t-1.88-1.39-2.66-.51q-2.94 0-4.63 1.68t-2.16 4.76m17.33 4.09h-17.47q.17 2.18.77 3.76.61 1.58 1.6 2.61t2.35 1.54 3.01.51 2.85-.38q1.19-.39 2.09-.86.89-.46 1.56-.85.68-.39 1.31-.39.85 0 1.27.64l1.95 2.47q-1.13 1.32-2.53 2.22-1.4.89-2.93 1.43-1.53.53-3.11.75t-3.06.22q-2.95 0-5.48-.97-2.53-.98-4.4-2.89t-2.94-4.73-1.07-6.53q0-2.89.93-5.43.94-2.55 2.68-4.43 1.75-1.89 4.27-2.98 2.51-1.11 5.68-1.11 2.66 0 4.92.86 2.25.85 3.88 2.49 1.62 1.63 2.54 4.01t.92 5.43q0 1.54-.33 2.08-.33.53-1.26.53m12.56-13.72.47 2.23q.85-.85 1.8-1.58t2.01-1.24 2.27-.8 2.64-.29q2.31 0 4.1.79 1.78.78 2.98 2.2t1.81 3.38q.62 1.97.62 4.33v17.96h-6.79v-17.96q0-2.58-1.18-4t-3.6-1.42q-1.76 0-3.3.8t-2.92 2.17v20.41h-6.79v-28.21h4.15q1.32 0 1.73 1.23m34.54 27.42q-3.68 0-5.65-2.08-1.96-2.07-1.96-5.73v-15.76h-2.89q-.55 0-.94-.35-.38-.36-.38-1.08v-2.69l4.54-.75 1.43-7.7q.13-.54.52-.85.38-.3.99-.3h3.52v8.88h7.53v4.84h-7.53v15.29q0 1.32.64 2.06.65.75 1.78.75.63 0 1.06-.15.42-.15.74-.32t.56-.32q.25-.15.5-.15.3 0 .49.15.2.15.42.46l2.03 3.3q-1.48 1.24-3.41 1.87-1.92.63-3.99.63m11.28-28.65h6.82v28.21h-6.82zm7.75-8.23q0 .88-.35 1.65-.36.77-.95 1.35t-1.39.92q-.8.35-1.71.35-.88 0-1.66-.35-.78-.34-1.36-.92t-.92-1.35q-.35-.77-.35-1.65 0-.9.35-1.7.34-.8.92-1.38.58-.57 1.36-.92.78-.34 1.66-.34.91 0 1.71.34.8.35 1.39.92.59.58.95 1.38.35.8.35 1.7m20.9 29.15v-4.75q-2.94.13-4.95.5-2 .37-3.21.95t-1.74 1.35q-.52.77-.52 1.68 0 1.78 1.06 2.56 1.06.76 2.76.76 2.09 0 3.62-.75 1.53-.76 2.98-2.3m-14.35-14.82-1.21-2.17q4.87-4.46 11.71-4.46 2.48 0 4.43.81 1.95.82 3.3 2.26t2.05 3.45.7 4.4v17.82h-3.08q-.96 0-1.48-.29-.53-.29-.83-1.17l-.6-2.03q-1.08.96-2.09 1.69-1.02.73-2.12 1.22-1.1.5-2.35.76t-2.77.26q-1.78 0-3.3-.48-1.51-.48-2.61-1.45-1.1-.96-1.7-2.39-.61-1.43-.61-3.33 0-1.07.36-2.13.36-1.05 1.17-2.02.81-.96 2.1-1.81 1.29-.86 3.18-1.49 1.88-.63 4.38-1.03 2.51-.4 5.72-.48v-1.65q0-2.83-1.21-4.19-1.21-1.37-3.49-1.37-1.65 0-2.74.39-1.08.38-1.91.87-.82.48-1.5.86-.67.39-1.49.39-.72 0-1.21-.37-.5-.37-.8-.87m27.44-18.76h6.8v40.87h-6.8zm51.04 4.85-1.84 3.49q-.33.57-.7.84-.37.26-.92.26-.58 0-1.25-.43-.68-.43-1.61-.95-.94-.52-2.19-.95-1.25-.42-2.95-.42-1.54 0-2.7.37-1.15.37-1.94 1.03-.78.66-1.17 1.58-.38.92-.38 2.02 0 1.41.78 2.34.79.93 2.08 1.59t2.94 1.19q1.65.52 3.38 1.11 1.74.59 3.39 1.38 1.65.78 2.94 1.98 1.29 1.19 2.07 2.93.79 1.73.79 4.2 0 2.7-.92 5.05t-2.7 4.1q-1.77 1.74-4.33 2.75-2.56 1-5.86 1-1.89 0-3.74-.37-1.84-.37-3.53-1.06t-3.18-1.65q-1.48-.96-2.64-2.15l2.18-3.54q.27-.39.71-.65t.94-.26q.68 0 1.48.56.8.57 1.9 1.26 1.1.68 2.57 1.25 1.47.56 3.53.56 3.17 0 4.9-1.5t1.73-4.3q0-1.57-.78-2.56-.79-.99-2.08-1.66-1.29-.68-2.94-1.14-1.65-.47-3.36-1.02-1.7-.55-3.35-1.32t-2.94-2.01q-1.3-1.24-2.08-3.09-.78-1.86-.78-4.58 0-2.17.86-4.24.87-2.06 2.52-3.66 1.65-1.59 4.07-2.55t5.55-.96q3.52 0 6.49 1.1 2.97 1.09 5.06 3.08m18.57 7.36q3.13 0 5.7 1.02t4.4 2.89 2.82 4.57q.99 2.69.99 6.02 0 3.35-.99 6.05-.99 2.69-2.82 4.59t-4.4 2.92q-2.57 1.01-5.7 1.01-3.17 0-5.75-1.01-2.59-1.02-4.42-2.92-1.82-1.9-2.83-4.59-1-2.7-1-6.05 0-3.33 1-6.02 1.01-2.7 2.83-4.57 1.83-1.87 4.42-2.89 2.58-1.02 5.75-1.02m0 23.85q3.52 0 5.21-2.37 1.69-2.36 1.69-6.93 0-4.56-1.69-6.96-1.69-2.39-5.21-2.39-3.58 0-5.3 2.41t-1.72 6.94q0 4.54 1.72 6.92t5.3 2.38m19.19-36.06h6.79v40.87h-6.79zm28.49 33.58v-4.75q-2.94.13-4.95.5t-3.22.95-1.73 1.35-.52 1.68q0 1.78 1.06 2.56 1.06.76 2.76.76 2.09 0 3.62-.75 1.52-.76 2.98-2.3m-14.35-14.82-1.21-2.17q4.86-4.46 11.71-4.46 2.48 0 4.43.81 1.95.82 3.3 2.26t2.05 3.45.7 4.4v17.82h-3.08q-.96 0-1.49-.29-.52-.29-.82-1.17l-.61-2.03q-1.07.96-2.09 1.69-1.01.73-2.11 1.22-1.1.5-2.36.76-1.25.26-2.76.26-1.79 0-3.3-.48t-2.61-1.45q-1.1-.96-1.71-2.39-.6-1.43-.6-3.33 0-1.07.36-2.13.35-1.05 1.16-2.02.82-.96 2.11-1.81 1.29-.86 3.17-1.49 1.89-.63 4.39-1.03t5.72-.48v-1.65q0-2.83-1.21-4.19-1.21-1.37-3.49-1.37-1.65 0-2.74.39-1.08.38-1.91.87-.82.48-1.5.86-.67.39-1.5.39-.71 0-1.21-.37-.49-.37-.79-.87m33.35-4.4.42 3.19q1.32-2.53 3.13-3.97 1.82-1.45 4.29-1.45 1.95 0 3.14.85l-.44 5.09q-.14.5-.4.7-.26.21-.7.21-.42 0-1.23-.14-.81-.13-1.58-.13-1.13 0-2.01.32-.88.34-1.58.95-.7.62-1.24 1.5-.53.88-1 2.01v17.38h-6.79v-28.21h3.99q1.04 0 1.45.37.42.37.55 1.33m51.98-9.51-1.84 3.49q-.33.57-.71.84-.37.26-.92.26-.57 0-1.25-.43-.67-.43-1.61-.95-.93-.52-2.18-.95-1.25-.42-2.96-.42-1.54 0-2.69.37-1.16.37-1.94 1.03-.79.66-1.17 1.58-.39.92-.39 2.02 0 1.41.79 2.34.78.93 2.07 1.59 1.3.66 2.95 1.19 1.65.52 3.38 1.11t3.38 1.38q1.65.78 2.94 1.98 1.3 1.19 2.08 2.93.78 1.73.78 4.2 0 2.7-.92 5.05t-2.69 4.1q-1.78 1.74-4.33 2.75-2.56 1-5.86 1-1.9 0-3.74-.37t-3.54-1.06q-1.69-.69-3.17-1.65-1.49-.96-2.64-2.15l2.17-3.54q.28-.39.72-.65t.93-.26q.69 0 1.49.56.79.57 1.89 1.26 1.1.68 2.57 1.25 1.48.56 3.54.56 3.16 0 4.89-1.5 1.74-1.5 1.74-4.3 0-1.57-.79-2.56-.78-.99-2.07-1.66-1.3-.68-2.95-1.14-1.65-.47-3.35-1.02-1.71-.55-3.36-1.32t-2.94-2.01-2.08-3.09q-.78-1.86-.78-4.58 0-2.17.87-4.24.86-2.06 2.51-3.66 1.65-1.59 4.07-2.55t5.56-.96q3.52 0 6.49 1.1 2.97 1.09 5.06 3.08m18.56 7.36q3.14 0 5.71 1.02t4.4 2.89 2.82 4.57q.99 2.69.99 6.02 0 3.35-.99 6.05-.99 2.69-2.82 4.59t-4.4 2.92q-2.57 1.01-5.71 1.01-3.16 0-5.75-1.01-2.58-1.02-4.41-2.92t-2.83-4.59q-1.01-2.7-1.01-6.05 0-3.33 1.01-6.02 1-2.7 2.83-4.57t4.41-2.89q2.59-1.02 5.75-1.02m0 23.85q3.52 0 5.21-2.37 1.69-2.36 1.69-6.93 0-4.56-1.69-6.96-1.69-2.39-5.21-2.39-3.57 0-5.29 2.41t-1.72 6.94q0 4.54 1.72 6.92t5.29 2.38m19.2-36.06h6.79v40.87h-6.79zm31.1 12.66h6.79v28.21h-4.15q-1.35 0-1.71-1.24l-.46-2.25q-1.74 1.76-3.83 2.84-2.09 1.09-4.92 1.09-2.31 0-4.08-.78-1.78-.79-2.99-2.22t-1.83-3.39q-.61-1.97-.61-4.34v-17.92h6.79v17.92q0 2.59 1.19 4.01 1.2 1.41 3.59 1.41 1.76 0 3.3-.78t2.92-2.16zm22.91 28.65q-3.69 0-5.66-2.08-1.96-2.07-1.96-5.73v-15.76h-2.89q-.55 0-.93-.35-.39-.36-.39-1.08v-2.69l4.54-.75 1.43-7.7q.14-.54.52-.85.39-.3.99-.3h3.52v8.88h7.54v4.84h-7.54v15.29q0 1.32.65 2.06.64.75 1.77.75.63 0 1.06-.15t.74-.32q.32-.17.57-.32.24-.15.49-.15.3 0 .5.15.19.15.41.46l2.03 3.3q-1.48 1.24-3.41 1.87-1.92.63-3.98.63m11.27-28.65h6.82v28.21h-6.82zm7.76-8.23q0 .88-.36 1.65t-.95 1.35-1.39.92q-.8.35-1.7.35-.88 0-1.67-.35-.78-.34-1.36-.92t-.92-1.35-.34-1.65q0-.9.34-1.7t.92-1.38q.58-.57 1.36-.92.79-.34 1.67-.34.9 0 1.7.34.8.35 1.39.92.59.58.95 1.38t.36 1.7m18.48 7.78q3.13 0 5.7 1.02t4.4 2.89 2.82 4.57q.99 2.69.99 6.02 0 3.35-.99 6.05-.99 2.69-2.82 4.59t-4.4 2.92q-2.57 1.01-5.7 1.01-3.17 0-5.75-1.01-2.59-1.02-4.42-2.92-1.82-1.9-2.83-4.59-1-2.7-1-6.05 0-3.33 1-6.02 1.01-2.7 2.83-4.57 1.83-1.87 4.42-2.89 2.58-1.02 5.75-1.02m0 23.85q3.52 0 5.21-2.37 1.69-2.36 1.69-6.93 0-4.56-1.69-6.96-1.69-2.39-5.21-2.39-3.58 0-5.3 2.41t-1.72 6.94q0 4.54 1.72 6.92t5.3 2.38m24.99-22.17.47 2.23q.85-.85 1.8-1.58t2.01-1.24 2.27-.8 2.64-.29q2.31 0 4.1.79 1.78.78 2.98 2.2t1.81 3.38q.62 1.97.62 4.33v17.96h-6.79v-17.96q0-2.58-1.18-4t-3.6-1.42q-1.76 0-3.3.8t-2.92 2.17v20.41h-6.79v-28.21h4.15q1.32 0 1.73 1.23m43.89 1.82-1.54 2.45q-.27.44-.57.61-.31.18-.77.18-.5 0-1.06-.27-.57-.28-1.31-.62-.74-.35-1.69-.62-.95-.28-2.24-.28-2.01 0-3.15.86-1.14.85-1.14 2.22 0 .91.59 1.53t1.57 1.09q.97.46 2.21.84 1.24.37 2.52.81t2.51 1q1.24.57 2.22 1.43.97.87 1.56 2.08.6 1.21.6 2.91 0 2.04-.73 3.76t-2.16 2.97-3.54 1.95q-2.1.7-4.85.7-1.46 0-2.85-.26-1.38-.26-2.66-.73t-2.37-1.1q-1.08-.63-1.91-1.37l1.57-2.59q.3-.47.71-.72.42-.24 1.05-.24t1.19.36q.57.35 1.31.76.74.42 1.75.78 1 .35 2.54.35 1.21 0 2.08-.29.86-.29 1.43-.75.56-.47.82-1.09t.26-1.28q0-.99-.59-1.62t-1.57-1.1q-.97-.47-2.22-.84t-2.56-.81-2.56-1.03-2.23-1.5q-.97-.91-1.56-2.23t-.59-3.19q0-1.73.68-3.3.69-1.56 2.02-2.73 1.34-1.17 3.33-1.87 2-.71 4.61-.71 2.91 0 5.31.97 2.39.96 3.98 2.53"/></svg>